<svg xmlns="http://www.w3.org/2000/svg" width="407.472" height="276.82" viewBox="0 0 407.472 276.82"><defs><style>.a,.k{fill:#eee;}.b{opacity:0.8;}.c{fill:#106dc1;}.d{fill:#3a88d0;}.e{fill:#cfcfff;}.f{fill:#d9d9d9;}.g{fill:#ffc064;}.h{fill:#af835b;}.i{fill:#ea8237;}.aj,.aq,.j,.k,.t{opacity:0.5;}.l{fill:#e9a056;}.m{fill:#d38c4c;}.n{fill:#1975c9;}.o{fill:#2e84d4;}.p{fill:#4444ad;}.q{fill:#b9c9ef;}.r{fill:#3d38a0;}.s{fill:#262691;}.t{fill:#8eb9bf;}.u{fill:#0a0a0a;}.v{fill:#303030;}.w{fill:#fefefe;}.x{fill:#404040;}.ab,.ae,.av,.bc,.y{fill:none;}.ab,.y{stroke:#fefefe;}.ab,.ae,.av,.y{stroke-miterlimit:10;}.ae,.y{stroke-width:0.25px;}.z{fill:#515151;}.aa,.bd{fill:#fff;}.ab{stroke-width:0.13px;}.ac{fill:#173a2c;}.ad{fill:#81172b;}.ae{stroke:#0a0a0a;}.ae,.bc{stroke-linecap:round;}.af{opacity:0.2;}.ag,.ai,.aj{fill:#020202;}.ag,.ah,.at,.au{opacity:0.3;}.ak{fill:#5858c4;}.al{fill:#d8826a;}.am{fill:#2b2b2b;}.an{fill:#ed9c80;}.ao{fill:#373737;}.ap{fill:#5146af;}.aq{fill:#202020;}.ar{fill:#2c1e56;}.as{fill:#f31429;}.at{fill:#b0affd;}.au{fill:#ae0b1a;}.av{stroke:#ffc996;stroke-width:0.39px;}.aw{fill:#f5aa96;}.ax{fill:#ffbfae;}.ay{fill:#ff8a29;}.az{fill:#f47211;}.ba{fill:#cf0e20;}.bb{opacity:0.9;}.bc{stroke:#1975c9;stroke-linejoin:round;stroke-width:1.36px;}.bd{opacity:0.05;}.be{fill:#363636;}.bf{fill:#277bc7;}</style></defs><g transform="translate(-10.35 -10.37)"><g transform="translate(10.35 10.37)"><path class="a" d="M613.829,677.177c0,2.548-74,4.611-165.275,4.611s-165.275-2.062-165.275-4.611,74-4.617,165.275-4.617S613.829,674.622,613.829,677.177Z" transform="translate(-270.979 -431.846)"/><g class="b" transform="translate(247.383 48.549)"><path class="c" d="M659.714,407.673c-.066.087-.146.18-.246.293l-.166.173c-.346.359-.812.8-1.331,1.331l-.6.592a8.616,8.616,0,0,0-.605.665,3.088,3.088,0,0,0-.253.259c-.246.266-.486.546-.712.818a10.07,10.07,0,0,0-.925,1.444,4.148,4.148,0,0,0-.206.426c-.18.373-.326.725-.472,1.031-.053.113-.1.213-.153.306v.033a3.174,3.174,0,0,1-.193.293,3.134,3.134,0,0,1-1.331,1,5.447,5.447,0,0,1-.665.226,9.019,9.019,0,0,1-1.71.366h-.366a3.1,3.1,0,0,1-2.521-1.331,3.046,3.046,0,0,1-.406-.805c-.605-1.756-2.781-4.185-5.522-7.072-3.24-3.42-4.245-7.392-4.145-13.552a9.081,9.081,0,0,1,2.255-5.582,12.861,12.861,0,0,1,4.817-3.606,14.12,14.12,0,0,1,1.683-.605,14.85,14.85,0,0,1,3.912-.592h.053a18.323,18.323,0,0,1,2.3.106,11.583,11.583,0,0,1,5.881,2.249,10.645,10.645,0,0,1,1.83,1.8,19.206,19.206,0,0,1,2.355,4.3C665.668,399.9,660.885,406.123,659.714,407.673Z" transform="translate(-636.811 -383.744)"/><path class="d" d="M667.8,409.776c-.067.086-.146.18-.246.293l-.166.173c-.346.359-.812.805-1.331,1.331l-.6.592a8.574,8.574,0,0,0-.605.665c-.087.08-.166.173-.253.259-.246.266-.486.546-.712.818-.06.086-.126.16-.186.246a6.663,6.663,0,0,0-.738,1.2,4.165,4.165,0,0,0-.206.426c-.18.373-.326.725-.472,1.031-.053.113-.1.213-.153.306v.033a3.165,3.165,0,0,1-.193.293,3.364,3.364,0,0,1-.6.592,10.558,10.558,0,0,1,2.062-5.256c.818-1.118,3.666-4.291,4.491-6.453a28.361,28.361,0,0,0,1.331-9.98,44.064,44.064,0,0,0-1.191-6.274,19.2,19.2,0,0,1,2.355,4.3C673.755,402,668.971,408.226,667.8,409.776Z" transform="translate(-644.897 -385.847)"/><path class="d" d="M648.457,415.672h-.12a3.446,3.446,0,0,0-.665.2,4.577,4.577,0,0,0-.812.346c-.166-.246-.066-.579-.166-.865-.6-1.763-2.781-4.185-5.509-7.065-3.247-3.426-7.358-12.681-1.9-19.141a12.644,12.644,0,0,1,1.83-1.8,13.159,13.159,0,0,1,2.987-1.81c-.665,1.277-2.3,4.777-2.448,7.451a16.359,16.359,0,0,0,1.364,7.791c.965,2.388,2.814,5.589,3.227,6.48a33.172,33.172,0,0,1,1.87,5.615C648.351,414.4,648.457,415.672,648.457,415.672Z" transform="translate(-636.625 -384.331)"/><path class="d" d="M666.243,396.076a37.742,37.742,0,0,1-1.331,4.77c-.246.665-2,4.837-2.162,5.322s-1.876,3.473-2.222,4.278-.845,1.776-1.044,2.329a23.838,23.838,0,0,0-.479,2.661l-.665-.153-.705-.146.047-5.422s-.18-2.861-.206-4.165,0-4.9.133-10.512a53.444,53.444,0,0,0-1.3-11.31,16,16,0,0,1,4.451.519,11.092,11.092,0,0,1,3.726,1.836C666.383,389.276,666.323,395.3,666.243,396.076Z" transform="translate(-643.213 -383.723)"/><path class="c" d="M667.264,396.356a37.734,37.734,0,0,1-1.331,4.77c-.246.665-2,4.837-2.162,5.322s-1.876,3.473-2.222,4.278-.845,1.776-1.044,2.329a23.823,23.823,0,0,0-.479,2.661l-.665-.153a27.117,27.117,0,0,1,1.237-6.307c.546-1,1.876-4.125,3.506-10.306,1.663-6.327-.705-12.754-2.322-14.391a11.091,11.091,0,0,1,3.726,1.836C667.4,389.556,667.344,395.577,667.264,396.356Z" transform="translate(-644.234 -384.003)"/><path class="e" d="M637.429,403.816a26.234,26.234,0,0,1,2.129-1.7,15.1,15.1,0,0,1,2.4-1.277,22.066,22.066,0,0,1,5.322-1.444,25.27,25.27,0,0,1,10.844,1.2,11.469,11.469,0,0,1,2.661,1.164,9.522,9.522,0,0,1,2.315,1.65c.06.067.186-.053.126-.12a8.336,8.336,0,0,0-1.916-1.41,13.362,13.362,0,0,0-2.235-1.144,28.827,28.827,0,0,0-5.582-1.4,21.649,21.649,0,0,0-11.071,1.184,15.678,15.678,0,0,0-2.661,1.331,25.458,25.458,0,0,0-2.422,1.889c-.086.067,0,.166.093.1Z" transform="translate(-636.853 -388.862)"/><path class="e" d="M637.727,405.439a13.438,13.438,0,0,1,4.078-2.661,19.689,19.689,0,0,1,5.189-1.8,21.356,21.356,0,0,1,10.645,1.151,22.891,22.891,0,0,1,2.768,1.151c.472.239.925.519,1.384.778s.872.432,1.277.665c.08.053.206-.06.12-.113-.366-.226-.758-.4-1.138-.605s-.838-.492-1.264-.725a20.22,20.22,0,0,0-2.455-1.084,25.706,25.706,0,0,0-5.322-1.4,19.733,19.733,0,0,0-5.529-.053,17.961,17.961,0,0,0-5.036,1.57,15.132,15.132,0,0,0-4.817,3.027c-.08.087.053.16.12.093Z" transform="translate(-636.952 -389.36)"/><path class="e" d="M649.7,426.313a11.556,11.556,0,0,1,4.937-1.2,8.981,8.981,0,0,1,4.93.918c.08.047.2-.08.113-.126a9.11,9.11,0,0,0-5-.945,11.876,11.876,0,0,0-5.016,1.211c-.093.047-.06.186.04.14Z" transform="translate(-640.97 -397.521)"/><path class="e" d="M649.056,425.462a10.325,10.325,0,0,1,5.229-1.424,13.534,13.534,0,0,1,2.741.266c.526.1,1.038.253,1.557.373a6.327,6.327,0,0,1,1.251.386c.08.033.18-.087.08-.133a7.266,7.266,0,0,0-1.4-.419c-.452-.113-.9-.24-1.364-.333a13.77,13.77,0,0,0-3-.279,10.5,10.5,0,0,0-5.176,1.457c-.1.053,0,.16.086.106Z" transform="translate(-640.742 -397.169)"/><path class="e" d="M651.85,431.757c0,1.55.439,3.08.439,4.624,0,.087.166.04.166-.04,0-1.544-.446-3.074-.446-4.624C652.01,431.63,651.85,431.677,651.85,431.757Z" transform="translate(-641.721 -399.771)"/><path class="e" d="M654.53,432.879c0,1.211.239,2.428.259,3.639,0,.093.173.073.173,0,0-1.211-.26-2.422-.26-3.639C654.7,432.785,654.53,432.805,654.53,432.879Z" transform="translate(-642.618 -400.154)"/><path class="e" d="M657.643,433.149c0,1.144-.106,2.282-.133,3.42,0,.093.173.073.173,0,0-1.138.107-2.275.133-3.42C657.816,433.055,657.643,433.075,657.643,433.149Z" transform="translate(-643.615 -400.244)"/><path class="e" d="M661.005,431.952a14.638,14.638,0,0,1-.293,2.4,15.662,15.662,0,0,0-.353,2.215c0,.093.146,0,.153-.053a17.292,17.292,0,0,1,.406-2.475,13.625,13.625,0,0,0,.24-2.142c0-.1-.153,0-.153.053Z" transform="translate(-644.569 -399.833)"/><path class="e" d="M644.47,403.427c.1.479.166.971.286,1.444a12.064,12.064,0,0,0,.625,1.557c.532,1.237.951,2.515,1.6,3.706s1.331,2.222,1.916,3.386a19.818,19.818,0,0,1,.785,1.909c.226.665.326,1.331.586,2,.033.073.2.033.16-.053-.233-.579-.319-1.211-.526-1.8a19.607,19.607,0,0,0-.778-1.936c-.565-1.171-1.277-2.255-1.909-3.393a38.8,38.8,0,0,1-1.6-3.7,12.256,12.256,0,0,1-.665-1.71c-.113-.459-.18-.931-.279-1.4,0-.08-.186-.06-.166,0Z" transform="translate(-639.251 -390.302)"/><path class="e" d="M658.05,400.524c-.047,2.708-.08,5.422-.166,8.137-.08,2.495.266,4.977.246,7.471,0,.086.173.086.173,0,0-2.495-.326-4.983-.246-7.478.086-2.708.12-5.422.166-8.137,0-.087-.166-.087-.173,0Z" transform="translate(-643.736 -389.322)"/><path class="e" d="M667.786,404.134a4.237,4.237,0,0,1-.273.9c-.1.293-.18.605-.266.9-.173.572-.326,1.151-.512,1.723-.393,1.171-.845,2.335-1.291,3.493s-1.124,2.275-1.677,3.42a21.954,21.954,0,0,1-1.663,3.06c-.053.087.107.14.153.067a23.345,23.345,0,0,0,1.7-3.134c.546-1.131,1.2-2.209,1.657-3.386s.918-2.368,1.331-3.566c.206-.625.373-1.264.559-1.9a9.05,9.05,0,0,0,.466-1.59c0-.093-.16-.08-.166,0Z" transform="translate(-645.149 -390.53)"/><path class="e" d="M653.51,425.58a5.676,5.676,0,0,0,.173.825c.08.353.133.712.193,1.064a16.292,16.292,0,0,1,.14,1.889c0,.093.173.067.173,0a13.018,13.018,0,0,0-.113-1.69c-.047-.339-.12-.665-.173-1a10.119,10.119,0,0,1-.226-1.084c0-.093-.173-.067-.166,0Z" transform="translate(-642.276 -397.712)"/><path class="e" d="M658.177,425.221v3.233c0,.113.047.559-.04.665s.066.146.133.087.06-.313.067-.412v-3.533c0-.1-.166-.106-.166,0Z" transform="translate(-643.816 -397.6)"/><path class="e" d="M661.414,425.44c-.945,1.111-.9,2.661-1.164,4.038,0,.093.153.106.173,0,.253-1.331.2-2.881,1.124-3.959.073-.086-.073-.16-.133-.093Z" transform="translate(-644.532 -397.672)"/><path class="f" d="M658.317,431.56s-.6,1.237-3.327,1.131-3.02-1.331-3.02-1.331.153-.772,2.887-.665C658.244,430.895,658.317,431.56,658.317,431.56Z" transform="translate(-641.761 -399.441)"/><rect class="g" width="10.538" height="10.758" transform="translate(8.268 47.092) rotate(-89.93)"/><rect class="h" width="1.903" height="10.758" transform="translate(8.273 38.457) rotate(-89.93)"/><rect class="g" width="1.903" height="11.111" transform="translate(8.119 38.195) rotate(-89.94)"/><path class="i" d="M401.367,137.94l-.007,3.174.2-.306.206.306.2-.306.2.306.2-.306.2.313.206-.306.2.306v-3.18Z" transform="translate(-388.603 -101.616)"/></g><g class="j" transform="translate(353.203 243.98)"><path class="k" d="M795.68,679.732c0,1.251,12.148,2.269,27.138,2.269s27.131-1.018,27.131-2.269-12.148-2.262-27.131-2.262S795.68,678.488,795.68,679.732Z" transform="translate(-795.68 -677.47)"/></g><g class="j" transform="translate(101.891 272.296)"><path class="k" d="M417.94,722.292c0,1.251,12.148,2.262,27.131,2.262s27.131-1.011,27.131-2.262-12.148-2.262-27.131-2.262S417.94,721.041,417.94,722.292Z" transform="translate(-417.94 -720.03)"/></g><rect class="h" width="26.905" height="26.359" transform="translate(217.448 190.803)"/><rect class="h" width="26.905" height="4.77" transform="translate(217.932 190.322) rotate(-0.07)"/><rect class="h" width="27.79" height="4.764" transform="translate(217.266 189.777) rotate(-0.07)"/><path class="h" d="M359.318,295.64l.007,7.95-.5-.765-.506.765-.506-.765-.5.772-.5-.765-.506.765-.5-.765-.506.765-.007-7.95Z" transform="translate(-125.803 -105.849)"/><rect class="l" width="26.905" height="26.359" transform="translate(219.562 190.313) rotate(-0.07)"/><rect class="h" width="26.905" height="4.77" transform="translate(219.515 190.374) rotate(-0.06)"/><rect class="l" width="27.79" height="4.764" transform="translate(218.896 189.768) rotate(-0.07)"/><path class="i" d="M361.768,295.64l.013,7.95-.506-.765-.506.765-.5-.765-.5.765-.506-.765-.506.772-.5-.765-.5.765-.013-7.957Z" transform="translate(-126.624 -105.849)"/><rect class="h" width="26.905" height="26.359" transform="translate(203.435 163.182) rotate(-0.07)"/><rect class="h" width="26.905" height="4.77" transform="translate(203.429 163.182) rotate(-0.07)"/><rect class="h" width="27.79" height="4.764" transform="translate(202.77 162.637) rotate(-0.07)"/><path class="h" d="M337.528,254.85l.007,7.95-.5-.765-.506.765-.5-.765-.506.765-.5-.765-.506.765-.5-.765-.506.765-.007-7.95Z" transform="translate(-118.51 -92.196)"/><rect class="m" width="26.905" height="26.359" transform="translate(205.072 163.173) rotate(-0.07)"/><rect class="h" width="26.905" height="4.77" transform="translate(205.065 163.18) rotate(-0.07)"/><rect class="m" width="27.79" height="4.764" transform="translate(204.399 162.635) rotate(-0.07)"/><path class="i" d="M339.978,254.84l.013,7.957-.506-.765-.506.765-.5-.765-.5.765-.506-.765-.5.765-.506-.765-.5.765-.013-7.95Z" transform="translate(-119.33 -92.193)"/><path class="c" d="M418.772,362.074,312.676,336,300.76,328.21l135,33.591Z" transform="translate(-107.549 -116.75)"/><rect class="n" width="122.037" height="105.757" transform="translate(111.864 111.705)"/><path class="c" d="M282.317,597.73a8.276,8.276,0,1,1-11.137-3.606A8.276,8.276,0,0,1,282.317,597.73Z" transform="translate(-265.419 -405.291)"/><path class="o" d="M384.955,499.391v2.887l-.339,38.528v.186l-45.7.2-28.136.126.093-.126.14-.213.14-.173,27.717-38.867a4.3,4.3,0,0,1,2.987-1.776l38.468-4.517a4.158,4.158,0,0,1,4.63,3.746Z" transform="translate(-280.183 -372.624)"/><path class="p" d="M386.7,501.842v1.7a4.484,4.484,0,0,0-1.331-2.748,3.393,3.393,0,0,0-2.661-.838L345.39,504.41a4.71,4.71,0,0,0-3.28,1.943l-25.454,35.793-.625-.08,25.647-36.033a5.2,5.2,0,0,1,3.652-2.169l37.3-4.451a3.872,3.872,0,0,1,4.1,2.428Z" transform="translate(-281.94 -373.884)"/><path class="q" d="M386.421,508.579V543.96H331.4v-4.245a6.287,6.287,0,0,1,1.078-3.526l16.752-24.836a5.894,5.894,0,0,1,4.185-2.555l5.629-.665,17.152-2.049,6.394-.765a3.44,3.44,0,0,1,3.819,3.393Z" transform="translate(-287.084 -375.865)"/><path class="n" d="M373.853,563.54v56.977h-69.6c-6.773,0-26.645-.446-26.645-.446V591.257c0-13.592,9.061-24.916,21.044-27.331h0c.386-.073.758-.14,1.144-.2a.1.1,0,0,0,.06,0,27.421,27.421,0,0,1,3.559-.173Z" transform="translate(-269.081 -395.358)"/><path class="r" d="M402.655,573.024h-8.429a2.189,2.189,0,0,1-2.2-2.189h0a2.2,2.2,0,0,1,2.2-2.2h8.429a2.2,2.2,0,0,1,2.2,2.2h0a2.189,2.189,0,0,1-2.2,2.189Z" transform="translate(-307.377 -397.065)"/><path class="s" d="M404.84,571.552a2.189,2.189,0,0,1-2.2,2.2h-8.409a2.189,2.189,0,0,1-2.2-2.2,2.154,2.154,0,0,1,.133-.752,2.182,2.182,0,0,0,2.062,1.437h8.423a2.175,2.175,0,0,0,2.056-1.437A2.156,2.156,0,0,1,404.84,571.552Z" transform="translate(-307.38 -397.788)"/><path class="t" d="M123.1,205.9,96.635,243.816l-15.695-.04,25.009-35.833Z" transform="translate(-33.976 -75.813)"/><path class="t" d="M400.006,508.848v6.56L379.92,544.182h-7.93L398.6,506.1A3.373,3.373,0,0,1,400.006,508.848Z" transform="translate(-300.669 -376.133)"/><path class="t" d="M152.313,231.53v20.957l-14.6-.04Z" transform="translate(-52.977 -84.391)"/><path class="n" d="M275.388,639.244h-4.151a6.447,6.447,0,0,1-6.447-6.447h0a6.447,6.447,0,0,1,6.447-6.447h4.151a6.447,6.447,0,0,1,6.447,6.447h0A6.447,6.447,0,0,1,275.388,639.244Z" transform="translate(-264.79 -416.38)"/><path class="u" d="M527.2,629.226l3.6-4.983a20.478,20.478,0,0,1,16.593-8.483h0a20.471,20.471,0,0,1,16.46,8.31l3.8,5.156" transform="translate(-352.618 -412.836)"/><rect class="c" width="233.142" height="8.769" rx="2.83" transform="translate(5.881 216.41)"/><path class="c" d="M330.74,629.226l3.593-4.983a20.485,20.485,0,0,1,16.593-8.483h0a20.485,20.485,0,0,1,16.466,8.31l3.806,5.156" transform="translate(-286.863 -412.836)"/><circle class="v" cx="18.875" cy="18.875" r="18.875" transform="translate(45.234 207.315)"/><circle class="w" cx="14.331" cy="14.331" r="14.331" transform="translate(43.842 226.196) rotate(-45)"/><circle class="x" cx="10.405" cy="10.405" r="10.405" transform="translate(53.703 215.785)"/><circle class="y" cx="9.534" cy="9.534" r="9.534" transform="translate(54.575 216.656)"/><path class="z" d="M364.042,647.761a5.915,5.915,0,1,1-1.732-4.189A5.921,5.921,0,0,1,364.042,647.761Z" transform="translate(-294.046 -421.564)"/><circle class="aa" cx="1.929" cy="1.929" r="1.929" transform="translate(62.179 224.261)"/><circle class="ab" cx="2.428" cy="2.428" r="2.428" transform="translate(61.68 223.762)"/><circle class="ac" cx="18.875" cy="18.875" r="18.875" transform="translate(175.94 207.315)"/><circle class="w" cx="14.331" cy="14.331" r="14.331" transform="translate(174.552 226.192) rotate(-45)"/><circle class="u" cx="10.405" cy="10.405" r="10.405" transform="translate(184.409 215.785)"/><circle class="y" cx="9.534" cy="9.534" r="9.534" transform="translate(185.28 216.656)"/><path class="ad" d="M560.542,647.761a5.915,5.915,0,1,1-1.73-4.187A5.921,5.921,0,0,1,560.542,647.761Z" transform="translate(-359.814 -421.564)"/><path class="ae" d="M551.143,651.008a4.482,4.482,0,0,1-.133-1.084,4.377,4.377,0,0,1,.306-1.623" transform="translate(-360.587 -423.727)"/><path class="ae" d="M554.985,656.39a4.391,4.391,0,0,1-2.615-1.63" transform="translate(-361.042 -425.889)"/><path class="ae" d="M561,655.7a4.4,4.4,0,0,1-2,1" transform="translate(-363.261 -426.203)"/><path class="ae" d="M563.912,650.74a4.318,4.318,0,0,1-.592,2.2" transform="translate(-364.707 -424.543)"/><path class="u" d="M558.569,649.766a1.929,1.929,0,1,1-.563-1.369,1.929,1.929,0,0,1,.563,1.369Z" transform="translate(-361.825 -423.569)"/><circle class="ab" cx="2.428" cy="2.428" r="2.428" transform="translate(192.386 223.762)"/><rect class="l" width="39.472" height="40.284" transform="matrix(0.24, -0.971, 0.971, 0.24, 260.216, 186.863)"/><rect class="h" width="7.139" height="40.284" transform="matrix(0.24, -0.971, 0.971, 0.24, 267.959, 155.468)"/><rect class="l" width="7.139" height="41.615" transform="matrix(0.24, -0.971, 0.971, 0.24, 267.188, 154.446)"/><path class="i" d="M445.726,240.154l-2.854,11.556-.459-1.291-1,.931-.452-1.291-1,.931L439.5,249.7l-1.011.931-.452-1.291-1,.931,2.854-11.563Z" transform="translate(-153.158 -86.794)"/><rect class="l" width="39.472" height="40.284" transform="matrix(0.24, -0.971, 0.971, 0.24, 248.372, 225.313)"/><rect class="h" width="7.139" height="40.284" transform="matrix(0.24, -0.971, 0.971, 0.24, 256.13, 193.926)"/><rect class="l" width="7.139" height="41.615" transform="matrix(0.24, -0.971, 0.971, 0.24, 255.351, 192.89)"/><path class="g" d="M427.929,297.944,425.075,309.5l-.452-1.291-1.011.931-.452-1.291-1,.931-.452-1.291-1,.931-.459-1.291-1,.931,2.854-11.563Z" transform="translate(-147.204 -106.137)"/><rect class="h" width="39.472" height="40.284" transform="matrix(0.24, -0.971, 0.971, 0.24, 280.533, 233.251)"/><rect class="h" width="7.139" height="40.284" transform="matrix(0.24, -0.971, 0.971, 0.24, 288.283, 201.857)"/><rect class="h" width="7.139" height="41.615" transform="matrix(0.24, -0.971, 0.971, 0.24, 287.505, 200.827)"/><path class="h" d="M476.266,309.877l-2.854,11.563-.459-1.291-1,.931-.452-1.3-1,.931-.452-1.291-1.011.931-.452-1.291-1,.931,2.854-11.556Z" transform="translate(-163.38 -110.133)"/><rect class="g" width="39.472" height="40.284" transform="matrix(0.24, -0.971, 0.971, 0.24, 282.908, 233.833)"/><rect class="h" width="7.139" height="40.284" transform="matrix(0.24, -0.971, 0.971, 0.24, 290.651, 202.446)"/><rect class="g" width="7.139" height="41.615" transform="matrix(0.24, -0.971, 0.971, 0.24, 289.887, 201.417)"/><path class="i" d="M479.829,310.764l-2.847,11.556-.459-1.291-1,.931-.452-1.291-1,.931-.452-1.3-1.011.931-.452-1.291-1,.931,2.854-11.556Z" transform="translate(-164.575 -110.427)"/><g class="af" transform="translate(129.022 125.955)"><rect class="a" width="10.073" height="77.262" rx="1.8"/><rect class="a" width="10.073" height="77.262" rx="1.8" transform="translate(19.414)"/><rect class="a" width="10.073" height="77.262" rx="1.8" transform="translate(38.827)"/><rect class="a" width="10.073" height="77.262" rx="1.8" transform="translate(58.234)"/><rect class="a" width="10.073" height="77.262" rx="1.8" transform="translate(77.648)"/></g><path class="h" d="M301.825,287.43l.02,17.943-.918-1.723-.918,1.73-.925-1.73-.911,1.73-.918-1.723-.925,1.723-.918-1.723-.911,1.73-.02-17.943Z" transform="translate(-105.447 -103.101)"/><rect class="l" width="49.213" height="59.491" transform="translate(170.843 185.549) rotate(-0.07)"/><rect class="h" width="49.213" height="10.758" transform="translate(170.85 185.549) rotate(-0.07)"/><rect class="l" width="50.829" height="10.751" transform="translate(169.624 184.333) rotate(-0.07)"/><path class="g" d="M306.315,287.43l.02,17.943-.918-1.723-.925,1.723-.918-1.723-.911,1.723-.918-1.723-.925,1.73-.918-1.723-.911,1.723-.02-17.943Z" transform="translate(-106.95 -103.101)"/><rect class="h" width="35.088" height="35.813" transform="translate(142.93 244.703) rotate(-89.94)"/><rect class="h" width="6.347" height="35.813" transform="translate(143.022 216.029) rotate(-89.93)"/><rect class="h" width="6.34" height="36.991" transform="translate(142.729 215.302) rotate(-89.93)"/><path class="h" d="M247.883,324.44l-.013,10.578.665-1.018.672,1.025.665-1.018.665,1.018.672-1.018.672,1.018.665-1.018.665,1.018.013-10.585Z" transform="translate(-89.847 -115.488)"/><rect class="g" width="35.088" height="35.813" transform="translate(140.813 244.774) rotate(-89.93)"/><rect class="h" width="6.347" height="35.813" transform="translate(140.85 216.029) rotate(-89.93)"/><rect class="g" width="6.34" height="36.991" transform="translate(140.558 215.309) rotate(-89.93)"/><path class="i" d="M244.613,324.43l-.013,10.585.665-1.018.672,1.018.672-1.018.665,1.018L247.94,334l.672,1.025.665-1.018.665,1.018.013-10.585Z" transform="translate(-88.753 -115.485)"/><path class="p" d="M384.449,563.54v.386H309.27c.386-.073.758-.14,1.144-.2a.1.1,0,0,0,.06,0l.14-.173Z" transform="translate(-279.677 -395.358)"/><g class="j" transform="translate(37.057 160.176)"><path class="ag" d="M339.032,552.72v8.948a1.1,1.1,0,0,1-2.036.585l-1.537-2.435a5.489,5.489,0,0,1,.206-6.187l1.2-1.637a1.2,1.2,0,0,1,2.162.725Z" transform="translate(-325.214 -551.506)"/><g class="ah" transform="translate(0 3.82)"><path class="ai" d="M326.491,567.944h-3.719a2.289,2.289,0,0,1-2.282-2.282h0a2.282,2.282,0,0,1,2.282-2.282h3.719a2.275,2.275,0,0,1,2.282,2.282h0A2.282,2.282,0,0,1,326.491,567.944Z" transform="translate(-320.49 -559.3)"/><rect class="ai" width="7.698" height="2.196" transform="matrix(0.839, -0.544, 0.544, 0.839, 5.65, 4.19)"/><path class="aj" d="M328.662,566.531a2.142,2.142,0,0,1-.559.918,2.262,2.262,0,0,1-1.61.665h-3.712a2.275,2.275,0,0,1-1.617-3.885,2.056,2.056,0,0,1,.4-.319,2.39,2.39,0,0,0-.106.665,2.282,2.282,0,0,0,2.282,2.282h3.746a2.209,2.209,0,0,0,1.178-.326Z" transform="translate(-320.492 -559.478)"/></g></g><rect class="ak" width="7.698" height="2.196" transform="matrix(0.839, -0.544, 0.544, 0.839, 43.388, 168.186)"/><path class="ak" d="M340.064,552.72v8.948a1.1,1.1,0,0,1-2.036.585l-1.537-2.435a5.5,5.5,0,0,1,.206-6.187l1.2-1.637a1.2,1.2,0,0,1,2.162.725Z" transform="translate(-288.503 -391.33)"/><path class="p" d="M340.036,561.919a1.1,1.1,0,0,1-2,.339l-1.55-2.435a5.475,5.475,0,0,1,.213-6.187L337.894,552a1.218,1.218,0,0,1,.792-.479l-.918,1.264a5.469,5.469,0,0,0-.213,6.181l1.537,2.422A1.071,1.071,0,0,0,340.036,561.919Z" transform="translate(-288.501 -391.335)"/><path class="ak" d="M327.538,567.944h-3.686a2.289,2.289,0,0,1-2.282-2.282h0a2.282,2.282,0,0,1,2.282-2.282h3.719a2.275,2.275,0,0,1,2.282,2.282h0a2.282,2.282,0,0,1-2.315,2.282Z" transform="translate(-283.794 -395.304)"/><path class="p" d="M329.705,566.531a2.142,2.142,0,0,1-.559.918,2.249,2.249,0,0,1-1.61.665h-3.686a2.275,2.275,0,0,1-1.617-3.885,2.054,2.054,0,0,1,.4-.319,2.388,2.388,0,0,0-.107.665,2.282,2.282,0,0,0,2.282,2.282h3.7A2.209,2.209,0,0,0,329.705,566.531Z" transform="translate(-283.793 -395.482)"/><path class="al" d="M819.232,528.484c-1.677,3.327-2.049,10.319-3.786,13.605-.852,1.617-7.545,10.831-12.461,15.242-.665-1.63-3.992.253-2.981-1.184,3.127-4.471,9.108-9.68,9.92-16.739.532-4.657,3.992-15.488,3.992-15.488" transform="translate(-443.861 -382.097)"/><path class="am" d="M851.187,679.781c2.189-.186,4.364-1.364,5.322-1.457a32.56,32.56,0,0,0,3.519-.792c.592-.166-.479-3.752-1.41-3.872a2.337,2.337,0,0,1-.486.326,4.837,4.837,0,0,1-2.495.512c-1.331,1.277-1.277,1.643-2.921,2.661a10.572,10.572,0,0,0-2,1.55C850.083,679.348,849.956,679.874,851.187,679.781Z" transform="translate(-460.741 -432.214)"/><path class="an" d="M860.564,671.27a7.166,7.166,0,0,0,.665,1.79c-1.69,1.923-3.107.9-3.107.9v-.26l-.412-1.856Z" transform="translate(-463.238 -431.415)"/><path class="am" d="M804.5,679.7c2.129.519,4.571.08,5.5.3a31.847,31.847,0,0,0,3.593.359c.619,0,.738-3.712-.113-4.112a2.827,2.827,0,0,1-.565.153,4.83,4.83,0,0,1-2.528-.306c-1.663.792-1.73,1.151-3.6,1.577a10.771,10.771,0,0,0-2.4.832C803.584,678.937,803.3,679.41,804.5,679.7Z" transform="translate(-445.158 -433.028)"/><path class="an" d="M816.807,673.609a6.966,6.966,0,0,0,.047,1.9c-2.209,1.291-3.233-.126-3.233-.126l.093-.246.193-1.889Z" transform="translate(-448.481 -432.077)"/><path class="ao" d="M837.556,577.656s4.564-9.248-1.923-16.586c0,0-6.074,2.275-10.824,2.3a23.422,23.422,0,0,1-5.6-.492,120.33,120.33,0,0,0-1.5,17.737Z" transform="translate(-449.85 -394.531)"/><path class="ao" d="M821.7,627.951h0c0,9.314-3.227,21.23-4.358,27.943h-.353a19.79,19.79,0,0,1-3.845-.506l.04-.719c.825-10.864.665-28.728.732-34.363a6.5,6.5,0,0,1,.093-1.071c.665-4.092,4.91-3.28,6.453.612a14.028,14.028,0,0,1,.665,2.056c.066.293.126.592.186.9h0a22.971,22.971,0,0,1,.353,3.06v.106c0,.306.04.612.053.918v.066C821.7,627.306,821.7,627.625,821.7,627.951Z" transform="translate(-448.321 -413.091)"/><path class="ao" d="M828.671,585.965a1.487,1.487,0,0,1-.093.346c-1.018,3.958-3.759,13.373-5.688,19.068h0c-.439,1.331-.845,2.422-1.171,3.22h0a2,2,0,0,1-1.111.985,3.59,3.59,0,0,1-.845.266c-2.176.452-5.323-.552-5.323-4.83a10.8,10.8,0,0,1,.12-1.543c.5-3.44,2.468-22.541,2.734-24.37s.765-4.511,1.763-4.8C824.014,572.985,830.387,579.112,828.671,585.965Z" transform="translate(-448.756 -398.901)"/><path class="ap" d="M824.991,622.767l.965-1.617h0a25.4,25.4,0,0,0-.818,6.287v.107a5.355,5.355,0,0,0,.053.918v.067a4,4,0,0,1,0,.958h0c-.186.792-1.277-3.207-1.523-4.145a.344.344,0,0,0-.047-.186l.971-1.71Z" transform="translate(-451.828 -414.64)"/><path class="aq" d="M830.074,586.613c-1.018,3.959-3.759,13.373-5.688,19.068h0a26.348,26.348,0,0,0-.73,4.278c-.046.457-.085,1.232-.088,2.009v.107c0,.306.04.612.053.918v1.025h0c0,9.314-3.227,21.23-4.358,27.943h-.353s1.331-11.064,2.788-18.708a30.7,30.7,0,0,0-.446-13.12c-.16-.612-.273-.945-.273-.945l1.4-3.273c1.61-4.278,2.282-14.457,2.282-14.457C821.871,584.091,822,575.03,822,575.03l2.754.559,4.6,6.287Z" transform="translate(-450.252 -399.203)"/><path class="ao" d="M845.325,621.737c-3.1-3.327-7.777-2.129-5.935,2.814,1.963,5.282,8.143,20.006,11.31,30.424l.226.665a20.742,20.742,0,0,0,4.1-1.045c-1.411-6.719-2-18.189-5.322-26.366A21.649,21.649,0,0,0,845.325,621.737Z" transform="translate(-456.967 -414.208)"/><path class="ao" d="M823.509,573.206c-.16-7.691,9.055-2,13.472.805,1.856,1.184,2.428,3.327,2.561,5.376s1.331,22.793,1.563,26.612c.586,8.549-6.533,3.446-7.086,1.051C832.63,600.983,823.6,577.4,823.509,573.206Z" transform="translate(-451.791 -397.3)"/><path class="ao" d="M847.78,616.44a20.669,20.669,0,0,0,3.14,9.314,65.356,65.356,0,0,1-5.662-3.327,21.157,21.157,0,0,1-.838-4.8C844.553,617.205,847.78,616.44,847.78,616.44Z" transform="translate(-458.79 -413.063)"/><path class="an" d="M816.045,484.207s-1.444,13.659,8.869,10.771c.526.066,3.673-.725,4.138-4.863a15.3,15.3,0,0,0-2.1-8.649c-.193-.113-6.7-.326-6.966-.326S816.045,484.207,816.045,484.207Z" transform="translate(-449.27 -367.779)"/><path class="ar" d="M823.61,484.852a2.519,2.519,0,0,1-1.184-2.887c.393-2.162.133-2.3-1.444-1.384s-9.527,5.256-8.143-4.857c.918.526,3.806.459,4.4-.792s7.358-4.657,9.92.333c1.776.06,3.812,2.1,3.613,6.107s-1.65,9.175-3.154,9.454-2.3-.918-2.235-2.821c.066-.985,2.961-2.3.858-5.256a1.716,1.716,0,0,0-2.628,2.1Z" transform="translate(-448.166 -364.931)"/><path class="an" d="M829.16,499.333s-.273,2.907.665,4.1c-2.189,1.723-6.167,1.331-6.167,1.331s1.2-1.237,0-5.382S829.16,499.333,829.16,499.333Z" transform="translate(-451.793 -373.265)"/><path class="as" d="M814.41,528.613s2.867,2.229,4.943,2.408l-1.091-12.461-1.171,3.054Z" transform="translate(-448.746 -380.303)"/><path class="at" d="M814.41,528.559s2.867,2.229,4.943,2.408l-.785-12.568-.306.106a25.765,25.765,0,0,0-1.331,8.416v2.242C816.885,529.617,815.355,528.852,814.41,528.559Z" transform="translate(-448.746 -380.25)"/><path class="as" d="M817.71,543.593l.359.153c1.643.625,8.742,2.847,17.564-1.59l1.091-.572s-1.43-3.253-1.723-12.727,0-10.532-1.623-15.216c-1.4-4.1-5.921-9.141-5.921-9.141s-4.225,2.661-5.748,2.661c-1.923,4.657-3.932,10.751-3.214,15.136.479,2.927,0,11.45-.426,16.792C817.9,541.724,817.71,543.593,817.71,543.593Z" transform="translate(-449.85 -375.597)"/><path class="au" d="M817.71,548.781l.359.153c3.766-2.907,8.709-7.159,10.033-8.982,1.6-2.2,2.189-5.935,2.375-7.578a6.368,6.368,0,0,0,.792-.033A25.575,25.575,0,0,0,830.457,520l-6.932,2.5-2.588,7.824a19.527,19.527,0,0,0,3.433,1.191,41.3,41.3,0,0,1-1.164,7.012,57.29,57.29,0,0,1-5.136,5.735C817.9,546.911,817.71,548.781,817.71,548.781Z" transform="translate(-449.85 -380.785)"/><path class="av" d="M809.65,542.31" transform="translate(-447.153 -388.252)"/><rect class="g" width="23.718" height="24.204" transform="translate(342.093 176.991) rotate(-89.93)"/><rect class="h" width="4.291" height="24.204" transform="translate(342.028 157.499) rotate(-89.94)"/><rect class="g" width="4.285" height="25.002" transform="translate(341.919 157.065) rotate(-89.93)"/><path class="i" d="M539.777,239.99l-.007,7.152.452-.685.452.685.452-.685.452.685.452-.685.452.692.452-.692.446.692.013-7.159Z" transform="translate(-187.545 -87.223)"/><path class="an" d="M802.682,572.112a4.66,4.66,0,0,1-2.428,2.9,1.59,1.59,0,0,1-1.024-.04c-.472.206-2,.359-1.4-.519a4.266,4.266,0,0,1-3.253.665c-.406,0-.386-.492.5-.725a4.418,4.418,0,0,0,2.781-2.3c-.18-.14-.333.12-.832.193s-.852-.173-.865-.413.665-.393.8-.486l1.67-1.078a3.161,3.161,0,0,1,1.75-.625c.12,0,1.331.08,1.011.512" transform="translate(-442.021 -397.416)"/><path class="an" d="M825.548,529.625c-1.47,2.967-5.322,12.794-5.988,13.925-2.355,4.458-14.3,14.058-14.3,14.058a2.4,2.4,0,0,1-2-2.355c3.413-2.322,9.886-12.361,11.217-13.559.865-.772,4.863-16.333,4.863-16.333" transform="translate(-445.014 -382.579)"/><path class="as" d="M832.007,519.46a29.827,29.827,0,0,1,0,11.822,27.182,27.182,0,0,1-9.447-1.151l1.7-8.709" transform="translate(-451.474 -380.604)"/><path class="aw" d="M460.13,579.54c2.116,2.475,3.879,8.356,6.034,10.791a79.545,79.545,0,0,0,13.752,10.4c.22-1.524,3.44-.612,2.289-1.63-3.579-3.16-9.747-6.354-11.9-12.188-1.41-3.845-6.587-12.361-6.587-12.361" transform="translate(-330.17 -399.043)"/><rect class="l" width="21.197" height="20.764" transform="translate(142.823 181.918) rotate(-0.07)"/><rect class="h" width="21.197" height="3.759" transform="translate(142.829 181.918) rotate(-0.07)"/><rect class="l" width="21.895" height="3.752" transform="translate(142.303 181.492) rotate(-0.07)"/><path class="g" d="M241.877,283.19l.007,6.26-.4-.6-.4.6-.393-.6-.393.605-.4-.605-.393.605-.4-.605-.393.605-.007-6.267Z" transform="translate(-86.781 -101.682)"/><path class="ax" d="M443.785,706.508s-.778,4.178-.526,4.7a7.251,7.251,0,0,0,2,2.581c.931.566,2.974,1.211,3.14,1.457a.625.625,0,0,1-.1.852,4.184,4.184,0,0,1-2.868.805c-2.754-.393-3.067-1.6-4.657-1.75a2.007,2.007,0,0,1-1.55,0,1.816,1.816,0,0,1-1.111-1.736,7.837,7.837,0,0,1,1.144-2.967c.439-.858.665-4.744.665-4.744" transform="translate(-322.799 -442.942)"/><path class="ay" d="M449.035,602.25l-10.944.266s-4.251,6.068-2.462,11.776a52.848,52.848,0,0,0,2.415,5.515c.479,1.331,3.706,18.915,3.526,20.219s-1.617,4.97-2.109,8.8c-.592,4.611-.113,19.56-.566,23.539a6.447,6.447,0,0,0,3.746.665c1.444-11.5,5.223-26.951,5.722-32.7A372.519,372.519,0,0,0,449.035,602.25Z" transform="translate(-321.822 -408.314)"/><path class="az" d="M449.5,624.127s-7.6-16.147-9.081-12.594a7.364,7.364,0,0,0,2.2,9.055c1.8,2.881,5.881,19.374,6.1,22.866.113,1.816,0,3.646.086,5.462a3.759,3.759,0,0,0,.106.532c.486-2.708.805-5.076.931-6.533a173.442,173.442,0,0,0-.14-18.8C449.635,624.121,449.562,624.114,449.5,624.127Z" transform="translate(-323.334 -411.25)"/><path class="ar" d="M448.354,719.04c.193-.346.233-.865.047-.991a17.167,17.167,0,0,0-1.736-.985c-.539-.233-1.39-.432-1.084-.273s-.233.765-.732.745c-1.723-.067-3.02-1.178-3.992-1.4a3.391,3.391,0,0,1-2.122-2.249,6.521,6.521,0,0,0-.971,2,3.326,3.326,0,0,0-.173,1.484,3.46,3.46,0,0,1,.186,1.41,2.735,2.735,0,0,0,1.031.339,3.885,3.885,0,0,0,1.091,0l.1-.891a4.331,4.331,0,0,1,.878.066,4.883,4.883,0,0,1,1.331.592c.206.233.373.665.632.778a5.514,5.514,0,0,0,2.269.512C446.964,720.19,448.028,719.632,448.354,719.04Z" transform="translate(-322.619 -445.679)"/><path class="ax" d="M459.676,709.55c1.2,0,2.249.033,3.453.066a12.534,12.534,0,0,0,.353,3.852,5.84,5.84,0,0,0,2.415,2.255c1.031.419,3.22.752,3.426.978a.605.605,0,0,1,0,.858,4.578,4.578,0,0,1-2.861,1.224c-2.9,0-3.373-1.118-5.05-1.031-.293,0-.758.506-1.6.253a1.776,1.776,0,0,1-1.371-1.557c-.053-1.151.838-2.229,1.178-3.147C459.683,713.176,459.656,709.849,459.676,709.55Z" transform="translate(-329.603 -444.227)"/><path class="ay" d="M442.615,600.2l10.871,2.834c3.327,13.306,5.615,28.043,5.322,36.352-.173,4.784-1.477,24.749-1.6,32.919v.712c-1.2,0-2.4-.053-3.6-.067v-.313c-.419-5-2.528-18.116-2.5-22.467A40.348,40.348,0,0,1,452.5,640.4s-7.418-21.469-7.917-22.8-3.327-1.83-4.032-5.256C439.342,606.427,442.615,600.2,442.615,600.2Z" transform="translate(-323.526 -407.628)"/><path class="ar" d="M469.426,719.993c.153-.373.126-.892-.086-.985a16.441,16.441,0,0,0-1.916-.719c-.585-.153-1.484-.22-1.158-.107s-.14.792-.665.852c-1.79.193-3.267-.719-4.318-.785a2.759,2.759,0,0,1-2.182-1.909,6.653,6.653,0,0,0-1.045,2.089,3.247,3.247,0,0,0,0,1.5,3.273,3.273,0,0,1,.373,1.331,2.789,2.789,0,0,0,1.1.186,4.438,4.438,0,0,0,1.131-.173v-.9a4.6,4.6,0,0,1,.918-.066,3.047,3.047,0,0,1,1.484.506,2.7,2.7,0,0,0,.8.566,6.175,6.175,0,0,0,2.355.153C468.135,721.343,469.16,720.631,469.426,719.993Z" transform="translate(-329.446 -446.499)"/><path class="as" d="M451.77,558.67c.752.24.492,2,1.237,2.262.546.173,1.6-.08,2.1.2,2.661,1.457,2,4.424,2.355,8.09,1.144,2.808,1.464,5.356.592,6.939-1.078,1.963-2.242,2.528-3.579,4.158-1,1.217-1.331,3.712-1.484,6.387-.033.459.359,1.264.253,1.71-.206.858-1.5,1.138-2.961,1.184-3.327.1-8.436-1.071-9.933-1s-2.734-.605-2.608-1.437c.086-.579.665-.825.885-1.949.479-2.475.805-8.649,1.178-10.745.958-5.376,1.65-9.367,3.8-14.331" transform="translate(-322.675 -393.728)"/><g class="ah" transform="translate(130.905 173.764)"><path class="ba" d="M467.478,575.882a25.048,25.048,0,0,0-3.08-3.952l-2.848,1.331c1.377,2.568,1.65,5.6,2.3,8.416a6.543,6.543,0,0,0,1.65-.18c.273-.452.173-.226.532-.885A11.617,11.617,0,0,0,467.478,575.882Z" transform="translate(-461.55 -571.93)"/></g><path class="ax" d="M465.707,542.254a14.336,14.336,0,0,0,.452-3.706c-.106-2.129-.406-5.2-3.952-6.433s-7.438-.432-8.569,2.129-.825,6.414-.971,8.483a12.6,12.6,0,0,1-1.637,4.544l7.644,3.207s1.211-2.714,1.723-3.04.7.951,2.388.792c.725-.066,1.477-1.364,2.043-2.961a.562.562,0,0,1,.053-.16,6.565,6.565,0,0,0,.9-.086c.526-.16.479-.393.359-.725a8.6,8.6,0,0,1-.439-2.042Z" transform="translate(-327.124 -384.65)"/><path class="ax" d="M489.58,611.942a4.105,4.105,0,0,0,2.129,2.542,1.364,1.364,0,0,0,.892,0c.419.18,1.73.313,1.237-.453a3.735,3.735,0,0,0,2.841.579c.353,0,.339-.432-.439-.665a3.933,3.933,0,0,1-2.435-2c.16-.126.293.1.732.166s.745-.153.758-.359-.579-.346-.705-.426l-1.464-.945a2.774,2.774,0,0,0-1.53-.546c-.106,0-1.151.066-.891.446" transform="translate(-340.026 -410.854)"/><path class="ax" d="M463.43,574.729c1.284,2.595,4.657,11.2,5.209,12.188,2.062,3.905,12.528,12.315,12.528,12.315a2.109,2.109,0,0,0,1.736-2.069c-2.994-2.029-8.649-10.825-9.82-11.869-.758-.665-4.265-14.3-4.265-14.3" transform="translate(-331.274 -397.851)"/><path class="as" d="M463.289,560.467c-2.907-1.078-5.668-1.051-7.91-3.247-2.229,1.75,2.834,11.7,4.065,11.975s2.947,5.762,3.26,6.507c3.992-.14,5.442-2.342,5.442-2.342C466.462,568.337,466.1,561.511,463.289,560.467Z" transform="translate(-328.392 -393.242)"/><path class="ar" d="M455.235,551.4c-.206-.752-.778-1.331-.911-2.109a3.513,3.513,0,0,1,.4-2.289,3.991,3.991,0,0,1,.985-.938c1.577-1.271,2.122-2.315,1.57-4.185a5.069,5.069,0,0,1-.293-1.883c.053-.579.166-1.178.778-1.258.432-.053.712.047.865.412.106.253-.08,2.069.512,1.038s1.078-1.078,1.031-3.327c0-.266-.113-1.331.053-1.523a4.324,4.324,0,0,1,1.517,3.04,2.212,2.212,0,0,0,1-1.923,5.043,5.043,0,0,0-.439-2.275c-1.41-2.954-2.881-3.48-4.125-3.992a9.222,9.222,0,0,0-3.759-.958c-1.331.047-2.914.452-3.28,1.43-1.81-.446-2.821,1.138-3.24,1.71a9.081,9.081,0,0,0-1.351,2.694c-.446,1.43-.539,2.947-.885,4.4a6.407,6.407,0,0,1-1.69,3.253c-.865.8-2.1.885-3.047,1.623a4.79,4.79,0,0,0-1.783,3.992c.08,1.53.878,3.167,0,4.577-.293.459-.712.825-1,1.284a3.493,3.493,0,0,0,.106,3.586,6.38,6.38,0,0,0,3.134,2.661,9.215,9.215,0,0,0,3.373.426c2.189-.14,4.032,0,6.334-2.042,1.331-1.131.452-1.77,1.7-2.967.7-.665,1.7-1.044,2.209-1.916a3.38,3.38,0,0,0,.313-2.428A.331.331,0,0,0,455.235,551.4Z" transform="translate(-322.66 -383.874)"/><g class="bb" transform="translate(123.341)"><rect class="d" width="3.613" height="11.503" transform="translate(20.671 4.198)"/><rect class="d" width="3.613" height="11.503" transform="translate(103.548 4.198)"/><rect class="c" width="23.844" height="10.086" rx="3.42" transform="translate(51.288 4.671)"/><rect class="c" width="77.368" height="2.335" transform="translate(25.228 14.763)"/><path class="c" d="M481.155,348.439h0a5.648,5.648,0,0,1-5.655-5.655v-7.2a5.655,5.655,0,0,1,5.655-5.655h0a5.655,5.655,0,0,1,5.648,5.655v7.2a5.648,5.648,0,0,1-5.648,5.655Z" transform="translate(-458.655 -317.169)"/><rect class="d" width="44.968" height="0.865" transform="translate(0 1.477)"/><path class="c" d="M605.685,348.439h0a5.655,5.655,0,0,1-5.655-5.655v-7.2a5.662,5.662,0,0,1,5.655-5.655h0a5.662,5.662,0,0,1,5.655,5.655v7.2A5.655,5.655,0,0,1,605.685,348.439Z" transform="translate(-500.334 -317.169)"/><rect class="d" width="44.968" height="0.865" transform="translate(82.87 1.477)"/><rect class="n" width="7.671" height="4.112" transform="translate(59.432 37.104)"/><rect class="l" width="39.838" height="40.657" transform="translate(42.585 85.633) rotate(-89.93)"/><rect class="h" width="7.205" height="40.657" transform="translate(42.618 53) rotate(-89.93)"/><rect class="l" width="7.199" height="41.994" transform="translate(42.292 52.18) rotate(-89.93)"/><path class="g" d="M285.413,77.97,285.4,89.985l.758-1.151.765,1.158.758-1.158.752,1.158.765-1.158.758,1.158.758-1.151.758,1.151.013-12.015Z" transform="translate(-225.749 -32.995)"/><path class="bc" d="M261.8,117.008H255.57V72.32h46.917v44.442h-7.451" transform="translate(-215.765 -31.104)"/><rect class="n" width="33.93" height="28.349" rx="4.55" transform="translate(46.95 9.674)"/><rect class="bd" width="26.366" height="22.028" rx="4.12" transform="translate(50.736 12.834)"/><rect class="be" width="1.723" height="2.169" transform="translate(21.616 2.335)"/><path class="bf" d="M484.92,312.792c0,1.065-3.852,1.065-3.852,0a1.929,1.929,0,1,1,3.852,0Z" transform="translate(-460.517 -310.75)"/><rect class="be" width="1.723" height="2.169" transform="translate(104.493 2.335)"/><path class="bf" d="M609.485,312.853c0,1.065-3.845,1.065-3.845,0a1.923,1.923,0,1,1,3.845,0Z" transform="translate(-502.212 -310.81)"/></g></g></g></svg>