<svg xmlns="http://www.w3.org/2000/svg" xmlns:xlink="http://www.w3.org/1999/xlink" width="379.379" height="287.164" viewBox="0 0 379.379 287.164"><defs><style>.a,.b{opacity:0.58;}.a{fill:url(#a);}.b{fill:url(#b);}.c{fill:#106dc1;}.d{fill:#1975c9;}.e,.f,.i,.j,.t{fill:#fff;}.e{opacity:0.12;}.f{opacity:0.65;}.g{fill:url(#c);}.h{opacity:0.28;}.j{opacity:0.27;}.k{fill:url(#d);}.l{fill:#f31429;}.m{fill:#810301;}.n{fill:url(#e);}.o{fill:#3bb54b;}.p{fill:#e1e1e1;}.q{fill:#3586d0;}.r{fill:#066135;}.s{fill:url(#f);}.t{opacity:0.78;}.u{fill:url(#g);}.v{fill:url(#h);}.w{fill:url(#i);}.x{fill:url(#j);}.y{fill:#7e0300;}.z{fill:url(#k);}.aa{fill:url(#l);}.ab{fill:url(#m);}.ac{fill:url(#n);}.ad{fill:url(#o);}.ae{fill:url(#p);}.af{fill:url(#q);}.ag{fill:url(#r);}.ah{fill:url(#s);}.ai{fill:url(#t);}.aj{fill:url(#u);}.ak{fill:url(#v);}.al{fill:url(#w);}.am{fill:url(#x);}.an{fill:url(#y);}.ao{fill:url(#z);}.ap{fill:url(#aa);}.aq{fill:url(#ab);}.ar{fill:url(#ac);}.as{fill:url(#ad);}.at{fill:url(#ae);}.au{fill:url(#af);}.av{opacity:0.7;}.aw{fill:url(#ag);}.ax{fill:url(#ah);}.ay{fill:url(#ai);}.az{fill:url(#aj);}.ba{fill:url(#ak);}.bb{fill:url(#al);}.bc{fill:url(#am);}.bd{fill:url(#an);}.be{fill:url(#ao);}.bf{fill:url(#ap);}.bg{fill:url(#aq);}.bh{fill:url(#ar);}.bi{fill:url(#as);}.bj{fill:url(#at);}.bk{fill:url(#au);}.bl{fill:url(#av);}.bm{fill:url(#aw);}.bn{fill:url(#ax);}.bo{fill:url(#ay);}.bp{fill:url(#az);}.bq{fill:url(#ba);}.br{fill:url(#bb);}.bs{fill:url(#bc);}.bt{fill:url(#bd);}.bu{fill:url(#be);}.bv{fill:url(#bf);}.bw{fill:url(#bg);}.bx{fill:url(#bh);}.by{fill:url(#bi);}.bz{fill:url(#bj);}.ca{fill:url(#bk);}</style><linearGradient id="a" y1="0.5" x2="1" y2="0.5" gradientUnits="objectBoundingBox"><stop offset="0" stop-color="#53d8ff"/><stop offset="1" stop-color="#3840f7"/></linearGradient><linearGradient id="b" x1="0" y1="0.5" x2="1" y2="0.5" xlink:href="#a"/><linearGradient id="c" x1="0.497" y1="-1.749" x2="0.503" y2="2.961" gradientUnits="objectBoundingBox"><stop offset="0" stop-color="#2b3582"/><stop offset="1" stop-color="#150e42"/></linearGradient><linearGradient id="d" x1="1.046" y1="-0.753" x2="0.18" y2="1.693" xlink:href="#c"/><linearGradient id="e" x1="0.878" y1="-0.406" x2="0.128" y2="1.995" xlink:href="#c"/><linearGradient id="f" x1="-20.974" y1="-0.679" x2="-20.25" y2="-0.271" xlink:href="#a"/><linearGradient id="g" x1="-53.842" y1="-2" x2="-53.171" y2="-2.778" gradientUnits="objectBoundingBox"><stop offset="0" stop-color="#fdf53f"/><stop offset="1" stop-color="#d93c65"/></linearGradient><linearGradient id="h" x1="-54.612" y1="-3.478" x2="-56.664" y2="-0.379" xlink:href="#g"/><linearGradient id="i" x1="-108.427" y1="-6.224" x2="-110.584" y2="-3.077" xlink:href="#g"/><linearGradient id="j" x1="-60.774" y1="-2.73" x2="-59.926" y2="-0.555" gradientUnits="objectBoundingBox"><stop offset="0" stop-color="#cb236d"/><stop offset="1" stop-color="#4c246d"/></linearGradient><linearGradient id="k" x1="-7.584" y1="-0.133" x2="-5.98" y2="0.88" xlink:href="#c"/><linearGradient id="l" x1="100.26" y1="0.616" x2="100.14" y2="-0.365" xlink:href="#g"/><linearGradient id="m" x1="1944.284" y1="0.428" x2="1944.144" y2="2.297" xlink:href="#j"/><linearGradient id="n" x1="2046.58" y1="44.852" x2="2046.444" y2="46.721" xlink:href="#j"/><linearGradient id="o" x1="0.002" y1="0.501" x2="0.999" y2="0.501" xlink:href="#c"/><linearGradient id="p" x1="71.286" y1="0.596" x2="71.202" y2="-0.258" gradientUnits="objectBoundingBox"><stop offset="0" stop-color="#f9b776"/><stop offset="1" stop-color="#f47960"/></linearGradient><linearGradient id="q" x1="265.008" y1="-39.364" x2="265.349" y2="-37.793" gradientUnits="objectBoundingBox"><stop offset="0" stop-color="#2c50ff"/><stop offset="1" stop-color="#1a1b80"/></linearGradient><linearGradient id="r" x1="290.593" y1="-21.43" x2="291.636" y2="-21.43" gradientUnits="objectBoundingBox"><stop offset="0" stop-color="#a737d5"/><stop offset="1" stop-color="#ef497a"/></linearGradient><linearGradient id="s" x1="154.798" y1="-1.548" x2="155.621" y2="-4.36" xlink:href="#p"/><linearGradient id="t" x1="162.115" y1="-14.862" x2="163.086" y2="-14.862" xlink:href="#r"/><linearGradient id="u" x1="103.542" y1="-1.536" x2="104.08" y2="-4.345" xlink:href="#p"/><linearGradient id="v" x1="-12.131" y1="0.115" x2="-10.184" y2="1.941" xlink:href="#g"/><linearGradient id="w" x1="18.148" y1="0.191" x2="20.62" y2="1.101" gradientUnits="objectBoundingBox"><stop offset="0" stop-color="#ce1567"/><stop offset="1" stop-color="#7a1dbc"/></linearGradient><linearGradient id="x" x1="296.579" y1="-9.797" x2="296.389" y2="-11.821" xlink:href="#p"/><linearGradient id="y" x1="317.285" y1="1.865" x2="317.379" y2="1.323" xlink:href="#q"/><linearGradient id="z" x1="140.669" y1="-2.705" x2="140.401" y2="-3.642" xlink:href="#p"/><linearGradient id="aa" x1="190.56" y1="-5.314" x2="190.432" y2="-6.249" xlink:href="#q"/><linearGradient id="ab" x1="578.622" y1="-9.082" x2="578.286" y2="-10.081" gradientUnits="objectBoundingBox"><stop offset="0" stop-color="#9cfffb"/><stop offset="1" stop-color="#9bfffa"/></linearGradient><linearGradient id="ac" x1="1546.396" y1="-171.533" x2="1546.341" y2="-172.567" xlink:href="#ab"/><linearGradient id="ad" x1="143.887" y1="-0.873" x2="145.129" y2="-0.054" xlink:href="#p"/><linearGradient id="ae" x1="518.323" y1="-5.011" x2="522.795" y2="-2.293" xlink:href="#p"/><linearGradient id="af" x1="-21.178" y1="-0.843" x2="-16.945" y2="2.365" xlink:href="#c"/><linearGradient id="ag" x1="-30.169" y1="-0.484" x2="-33.006" y2="6.004" xlink:href="#c"/><linearGradient id="ah" x1="-125.742" y1="0.506" x2="-124.747" y2="0.506" xlink:href="#p"/><linearGradient id="ai" x1="-38.764" y1="0.946" x2="-38.096" y2="0.099" xlink:href="#c"/><linearGradient id="aj" x1="-80.245" y1="-2.222" x2="-87.282" y2="5.383" xlink:href="#c"/><linearGradient id="ak" x1="-154.858" y1="0.5" x2="-153.857" y2="0.5" xlink:href="#p"/><linearGradient id="al" x1="-28.024" y1="0.917" x2="-27.553" y2="0.085" xlink:href="#c"/><linearGradient id="am" x1="3.993" y1="0.775" x2="5.605" y2="-0.237" xlink:href="#w"/><linearGradient id="an" x1="-22.3" y1="0.5" x2="-21.3" y2="0.5" xlink:href="#p"/><linearGradient id="ao" x1="423.907" y1="1.606" x2="425.909" y2="4.278" xlink:href="#p"/><linearGradient id="ap" x1="-153.278" y1="0.703" x2="-151.257" y2="-1.068" xlink:href="#p"/><linearGradient id="aq" x1="7.343" y1="1.06" x2="11.392" y2="-1.522" xlink:href="#w"/><linearGradient id="ar" x1="-50.435" y1="0.5" x2="-49.435" y2="0.5" xlink:href="#p"/><linearGradient id="as" x1="-234.874" y1="-88.522" x2="-235.196" y2="-89.588" xlink:href="#p"/><linearGradient id="at" x1="-134.582" y1="-119.26" x2="-132.567" y2="-121.583" xlink:href="#c"/><linearGradient id="au" x1="-767.203" y1="-431.49" x2="-768.145" y2="-436.136" xlink:href="#p"/><linearGradient id="av" x1="30.444" y1="2.057" x2="30.787" y2="-0.155" xlink:href="#ab"/><linearGradient id="aw" x1="4.099" y1="1.983" x2="4.134" y2="-0.098" xlink:href="#ab"/><linearGradient id="ax" x1="3.362" y1="1.032" x2="3.394" y2="0.118" xlink:href="#ab"/><linearGradient id="ay" x1="-61.698" y1="0.5" x2="-60.698" y2="0.5" xlink:href="#a"/><linearGradient id="az" x1="-86.064" y1="0.499" x2="-85.057" y2="0.499" xlink:href="#c"/><linearGradient id="ba" x1="-54.135" y1="0.5" x2="-53.136" y2="0.5" xlink:href="#a"/><linearGradient id="bb" x1="-75.518" y1="0.499" x2="-74.512" y2="0.499" xlink:href="#c"/><linearGradient id="bc" x1="103.987" y1="2.074" x2="105.073" y2="-0.158" xlink:href="#ab"/><linearGradient id="bd" x1="150.102" y1="2.095" x2="151.56" y2="-0.151" xlink:href="#ab"/><linearGradient id="be" x1="145.491" y1="2.114" x2="146.8" y2="-0.137" xlink:href="#ab"/><linearGradient id="bf" x1="41.099" y1="2.158" x2="41.443" y2="-0.144" xlink:href="#ab"/><linearGradient id="bg" x1="4.491" y1="34.019" x2="4.53" y2="-6.703" xlink:href="#ab"/><linearGradient id="bh" x1="4.945" y1="29.027" x2="4.988" y2="-11.805" xlink:href="#ab"/><linearGradient id="bi" x1="5.419" y1="24.27" x2="5.466" y2="-16.453" xlink:href="#ab"/><linearGradient id="bj" x1="-39.823" y1="1.186" x2="-41.398" y2="0.255" xlink:href="#p"/><linearGradient id="bk" x1="-44.97" y1="0.929" x2="-46.778" y2="-1.637" xlink:href="#p"/></defs><g transform="translate(0 -0.008)"><path class="a" d="M711.2,109.042a10.962,10.962,0,0,0-11.3-3.884c-4.556,1.139-7.149,5.5-11.367,7.235-7.4,3.036-17.634-2.964-23.243,4.866-6.867,9.575-12.177,2.383-12.177,8.893S700.573,127.862,724,128.2c3.384.052,18.072-.2,11.748-7.22-1.964-2.178-4.766-2.545-7.378-3.055-3.408-.667-11.5-1.029-13.969-3.679-1.33-1.43-1.84-3.479-3.041-5Z" transform="translate(-441.454 -104.82)"/><path class="b" d="M583.317,156.919a5.209,5.209,0,0,0-5.362-1.84c-2.159.539-3.379,2.6-5.385,3.427-3.508,1.43-8.355-1.4-11.019,2.307-3.255,4.542-5.772,1.134-5.772,4.218s22.5.81,33.6.953c1.606.024,8.579-.1,5.571-3.422a5.85,5.85,0,0,0-3.5-1.454c-1.616-.315-5.452-.477-6.62-1.744a26.914,26.914,0,0,1-1.43-2.383Z" transform="translate(-390.51 -131.041)"/><path class="c" d="M233.49,250.951v162.1c0,13.344,10.247,24.239,23.1,24.582,57.076,1.525,256.7,5.242,311.034,4.4,9.336-.143,16.9-7.9,17.157-17.581,1.049-37.65,2.75-128.2-3.546-170.25a18.193,18.193,0,0,0-17.157-15.761c-47.825-1.587-259.439-6.625-313.745-5.362C240.972,233.3,233.49,241.234,233.49,250.951Z" transform="translate(-221.818 -171.843)"/><path class="d" d="M254.07,257.082v154A14.01,14.01,0,0,0,267.6,425.33l302.974,3.884a13.611,13.611,0,0,0,13.564-13.821l.51-152.626a9.99,9.99,0,0,0-9.532-10.175l-310.2-6.5A10.779,10.779,0,0,0,254.07,257.082Z" transform="translate(-232.59 -178.76)"/><path class="e" d="M273.17,270.09V410.444a12.987,12.987,0,0,0,12.787,12.982l286.5,3.541a12.639,12.639,0,0,0,12.83-12.591l.477-139.1A9.246,9.246,0,0,0,576.745,266l-293.314-5.924A10.008,10.008,0,0,0,273.17,270.09Z" transform="translate(-242.588 -186.078)"/><path class="f" d="M585.887,636.159h0l-332.361-5.876a.477.477,0,1,1,0-.953l332.351,5.876a.477.477,0,0,1,.009.953Z" transform="translate(-232.056 -379.352)"/><path class="g" d="M585.5,655.34a8.335,8.335,0,0,1-8.34,8.34H217.34a8.34,8.34,0,0,1-8.34-8.34h0a8.34,8.34,0,0,1,8.34-8.34H577.162a8.335,8.335,0,0,1,8.34,8.34Z" transform="translate(-209 -388.601)"/><g class="h" transform="translate(38.124 87.782)"><path class="i" d="M387.926,291.087A6.906,6.906,0,0,0,383.089,289H295.574A6.747,6.747,0,0,0,289,295.968v11.915a6.615,6.615,0,0,0,6.739,6.81l87.41-1.282a6.806,6.806,0,0,0,6.7-6.777l.067-10.652A6.944,6.944,0,0,0,387.926,291.087Z" transform="translate(-288.994 -289)"/><path class="i" d="M391.115,365.023a6.143,6.143,0,0,0-4.432-1.735l-86.052,2a6.119,6.119,0,0,0-5.962,6.472l5.495,92.2a6.1,6.1,0,0,0,6.2,5.743l80.586-1.153a6.143,6.143,0,0,0,6.053-6.11V369.4a6.162,6.162,0,0,0-1.883-4.375Z" transform="translate(-291.959 -327.882)"/></g><path class="j" d="M866.894,299.337c-2.349-3.879-24.425-2.5-30.587-3.031-8.55-.743-11.438,1.577-11.228,9.193,0,0,2.964,111.044,2.964,111.073.238,8.7,10.733,6.772,17.2,6.091,7.111-.748,18.949,1.754,19.249-7.625,0,0,3.522-109.581,3.536-110.091A10.327,10.327,0,0,0,866.894,299.337Z" transform="translate(-531.459 -204.973)"/><path class="k" d="M574.4,525.809a1.692,1.692,0,0,1-1.692-1.644c-.033-1.077-.62-26.389,16.852-29.072a11.981,11.981,0,0,1,9.832,2.626c8.626,7.106,9.436,25.569,9.465,26.35a1.7,1.7,0,1,1-3.388.134c0-.176-.782-17.734-8.235-23.867a8.607,8.607,0,0,0-7.149-1.906c-14.541,2.249-13.988,25.4-13.983,25.635a1.7,1.7,0,0,1-1.644,1.749Z" transform="translate(-399.367 -308.992)"/><path class="l" d="M512.365,614.243l12.415-70.825,46.639-.767L586.45,618.9H516.392a4.084,4.084,0,0,1-4.027-4.661Z" transform="translate(-367.764 -333.983)"/><path class="m" d="M645.385,543.417l-9.055-.767L651.362,618.9h8.993a2.86,2.86,0,0,0,2.817-3.46Z" transform="translate(-432.671 -333.983)"/><path class="n" d="M553.372,525.406a1.7,1.7,0,0,1-1.692-1.644c-.033-1.077-.62-26.393,16.852-29.072a11.972,11.972,0,0,1,9.837,2.621c8.621,7.111,9.432,25.573,9.465,26.355a1.7,1.7,0,1,1-3.393.133c0-.176-.782-17.734-8.235-23.872a8.607,8.607,0,0,0-7.149-1.906c-14.536,2.249-13.988,25.407-13.983,25.64a1.7,1.7,0,0,1-1.644,1.749Z" transform="translate(-388.359 -308.78)"/><path class="i" d="M647.007,207.4v33.575c0,2.736-1.663,4.956-3.722,4.956H520.974c-1.711,0-3.2,1.544-3.612,3.751l-2.2,11.691c-.291,1.549-1.906,1.678-2.34.186L510,251.681c-.548-1.906-1.935-3.188-3.479-3.188h-5.242c-2.059,0-3.727-2.216-3.727-4.956v-34.51c0-2.721,1.649-4.933,3.694-4.956l142.022-1.62C645.325,202.426,647.007,204.652,647.007,207.4Z" transform="translate(-360.031 -155.917)"/><ellipse class="d" cx="15.003" cy="15.398" rx="15.003" ry="15.398" transform="translate(141.431 53.086)"/><path class="i" d="M537.643,230.228c0,2.764-2.24,5.752-5,5.752s-5.009-2.988-5.009-5.752a5.015,5.015,0,0,1,10.013,0Z" transform="translate(-375.776 -167.981)"/><path class="i" d="M521.247,259.887h12.224a2.96,2.96,0,0,0,2.817-2.059l.639-2.054a2.955,2.955,0,0,0-1.787-3.679c-4.976-1.821-10.118-1.587-15.389.167a2.95,2.95,0,0,0-1.906,3.574l.505,1.868A2.964,2.964,0,0,0,521.247,259.887Z" transform="translate(-370.599 -181.242)"/><path class="d" d="M678.051,253.747a2.907,2.907,0,0,1-2.907,2.912H589.5a2.907,2.907,0,0,1-2.907-2.912h0a2.907,2.907,0,0,1,2.907-2.907h85.647A2.907,2.907,0,0,1,678.051,253.747Z" transform="translate(-406.636 -181.245)"/><rect class="d" width="51.471" height="5.719" rx="2.86" transform="translate(180.149 79.203)"/><rect class="d" width="39.08" height="5.719" rx="2.86" transform="translate(233.05 79.203)"/><path class="o" d="M595.772,219.6a.562.562,0,0,0-.315-.953l-4.47-.653-2-4.056a.567.567,0,0,0-1.01,0l-1.873,3.789a.553.553,0,0,1-.424.31l-4.2.605a.562.562,0,0,0-.314.953l3.026,2.95a.562.562,0,0,1,.162.5l-.715,4.165a.564.564,0,0,0,.82.591l3.741-1.964a.567.567,0,0,1,.524,0l3.736,1.964a.562.562,0,0,0,.82-.591l-.715-4.165a.571.571,0,0,1,.162-.5Z" transform="translate(-403.708 -161.769)"/><path class="o" d="M637.772,219.6a.562.562,0,0,0-.315-.953L632.982,218l-2-4.056a.572.572,0,0,0-1.015,0L628.1,217.73a.557.557,0,0,1-.424.31l-4.2.605a.562.562,0,0,0-.315.953l3.026,2.95a.562.562,0,0,1,.162.5l-.715,4.165a.562.562,0,0,0,.82.591l3.736-1.964a.577.577,0,0,1,.529,0l3.736,1.964a.562.562,0,0,0,.82-.591l-.715-4.165a.562.562,0,0,1,.162-.5Z" transform="translate(-425.692 -161.77)"/><path class="o" d="M679.772,219.6a.562.562,0,0,0-.315-.953L674.982,218l-2-4.056a.567.567,0,0,0-1.01,0l-1.868,3.789a.558.558,0,0,1-.424.31l-4.2.605a.562.562,0,0,0-.315.953l3.026,2.95a.572.572,0,0,1,.162.5l-.715,4.165a.562.562,0,0,0,.82.591l3.736-1.964a.567.567,0,0,1,.524,0l3.741,1.964a.564.564,0,0,0,.82-.591l-.715-4.165a.562.562,0,0,1,.162-.5Z" transform="translate(-447.675 -161.769)"/><path class="p" d="M721.776,219.6a.562.562,0,0,0-.31-.953L716.991,218l-2-4.056a.567.567,0,0,0-1.01,0l-1.868,3.789a.567.567,0,0,1-.424.31l-4.208.605a.562.562,0,0,0-.31.953l3.026,2.95a.586.586,0,0,1,.162.5l-.715,4.165a.548.548,0,0,0,.224.548.563.563,0,0,0,.6.043l3.736-1.964a.567.567,0,0,1,.524,0l3.741,1.964a.553.553,0,0,0,.591-.043.562.562,0,0,0,.229-.548l-.715-4.165a.563.563,0,0,1,.162-.5Z" transform="translate(-469.663 -161.769)"/><path class="p" d="M763.776,219.6a.562.562,0,0,0-.31-.953L758.991,218l-2-4.056a.567.567,0,0,0-1.01,0l-1.868,3.789a.567.567,0,0,1-.429.31l-4.2.605a.562.562,0,0,0-.31.953l3.022,2.95a.562.562,0,0,1,.162.5l-.71,4.165a.562.562,0,0,0,.815.591l3.741-1.964a.567.567,0,0,1,.524,0l3.741,1.964a.562.562,0,0,0,.815-.591l-.71-4.165a.562.562,0,0,1,.162-.5Z" transform="translate(-491.646 -161.769)"/><path class="i" d="M647.007,346.466v33.571c0,2.736-1.663,4.956-3.722,4.956H520.974c-1.711,0-3.2,1.544-3.612,3.751l-2.2,11.691c-.291,1.549-1.906,1.678-2.34.186L510,390.741c-.548-1.906-1.935-3.188-3.479-3.188h-5.242c-2.059,0-3.727-2.216-3.727-4.952V348.087c0-2.721,1.649-4.933,3.694-4.956l142.022-1.62C645.325,341.486,647.007,343.712,647.007,346.466Z" transform="translate(-360.031 -228.703)"/><path class="d" d="M505.76,370.664a15.008,15.008,0,1,0,15-15.394A15.2,15.2,0,0,0,505.76,370.664Z" transform="translate(-364.329 -235.905)"/><path class="i" d="M537.643,369.288c0,2.764-2.24,5.752-5,5.752s-5.009-2.988-5.009-5.752a5.015,5.015,0,0,1,10.013,0Z" transform="translate(-375.776 -240.768)"/><path class="i" d="M521.268,398.947h12.224a2.95,2.95,0,0,0,2.817-2.059l.658-2.054a2.955,2.955,0,0,0-1.787-3.679c-4.976-1.821-10.118-1.587-15.389.167a2.95,2.95,0,0,0-1.906,3.574l.505,1.868A2.964,2.964,0,0,0,521.268,398.947Z" transform="translate(-370.62 -254.028)"/><path class="d" d="M587,392.807a2.912,2.912,0,0,0,2.912,2.912h85.642a2.912,2.912,0,0,0,2.912-2.912h0a2.912,2.912,0,0,0-2.912-2.907H589.921A2.912,2.912,0,0,0,587,392.807Z" transform="translate(-406.851 -254.031)"/><rect class="d" width="51.471" height="5.719" rx="2.86" transform="translate(220.659 145.925)"/><rect class="d" width="39.08" height="5.719" rx="2.86" transform="translate(180.149 145.925)"/><path class="o" d="M595.744,358.66a.572.572,0,0,0,.143-.581.558.558,0,0,0-.477-.381l-4.47-.653-2-4.051a.562.562,0,0,0-1.01,0l-1.873,3.784a.553.553,0,0,1-.424.31l-4.185.61a.558.558,0,0,0-.477.381.572.572,0,0,0,.143.581l3.026,2.945a.562.562,0,0,1,.162.477l-.715,4.165a.564.564,0,0,0,.82.591l3.741-1.964a.567.567,0,0,1,.524,0l3.737,1.963a.562.562,0,0,0,.82-.591l-.715-4.165a.572.572,0,0,1,.162-.477Z" transform="translate(-403.68 -234.549)"/><path class="o" d="M637.744,358.662a.572.572,0,0,0,.143-.581.557.557,0,0,0-.477-.381l-4.475-.653-2-4.051a.567.567,0,0,0-1.015,0l-1.868,3.784a.558.558,0,0,1-.424.31l-4.184.61a.558.558,0,0,0-.477.381.572.572,0,0,0,.143.581l3.026,2.945a.562.562,0,0,1,.162.477l-.715,4.165a.562.562,0,0,0,.82.591l3.736-1.963a.577.577,0,0,1,.529,0l3.736,1.964a.562.562,0,0,0,.82-.591l-.715-4.165a.563.563,0,0,1,.162-.477Z" transform="translate(-425.664 -234.55)"/><path class="o" d="M679.744,358.66a.572.572,0,0,0,.143-.581.557.557,0,0,0-.477-.381l-4.475-.653-2-4.051a.562.562,0,0,0-1.01,0l-1.868,3.784a.557.557,0,0,1-.424.31l-4.184.61a.558.558,0,0,0-.477.381.572.572,0,0,0,.143.581l3.026,2.945a.572.572,0,0,1,.162.477l-.715,4.165a.562.562,0,0,0,.82.591l3.736-1.964a.568.568,0,0,1,.524,0l3.741,1.964a.564.564,0,0,0,.82-.591l-.715-4.165a.562.562,0,0,1,.162-.477Z" transform="translate(-447.647 -234.549)"/><path class="o" d="M721.744,358.66a.562.562,0,0,0,.143-.581.553.553,0,0,0-.477-.381l-4.475-.653-2-4.051a.562.562,0,0,0-1.01,0l-1.868,3.784a.567.567,0,0,1-.424.31l-4.184.61a.558.558,0,0,0-.477.381.572.572,0,0,0,.143.581l3.026,2.945a.586.586,0,0,1,.162.477l-.715,4.165a.548.548,0,0,0,.224.548.562.562,0,0,0,.6.043l3.736-1.964a.567.567,0,0,1,.524,0l3.741,1.964A.553.553,0,0,0,719,366.8a.562.562,0,0,0,.229-.548l-.715-4.165a.562.562,0,0,1,.162-.477Z" transform="translate(-469.631 -234.549)"/><path class="o" d="M763.776,358.671a.562.562,0,0,0-.31-.953l-4.475-.653-2-4.051a.562.562,0,0,0-1.01,0l-1.868,3.784a.567.567,0,0,1-.429.31l-4.2.6a.562.562,0,0,0-.31.953l3.022,2.945a.562.562,0,0,1,.162.477l-.71,4.165a.562.562,0,0,0,.815.591l3.741-1.964a.567.567,0,0,1,.524,0l3.741,1.964a.562.562,0,0,0,.815-.591l-.71-4.165a.563.563,0,0,1,.162-.477Z" transform="translate(-491.646 -234.559)"/><path class="i" d="M647.007,485.157v33.556c0,2.736-1.663,4.952-3.722,4.952H520.974c-1.711,0-3.2,1.549-3.612,3.755l-2.2,11.686c-.291,1.549-1.906,1.678-2.34.186L510,529.417c-.548-1.906-1.935-3.193-3.479-3.193h-5.242c-2.059,0-3.727-2.216-3.727-4.952v-34.49c0-2.717,1.649-4.928,3.694-4.952l142.022-1.62C645.325,480.181,647.007,482.4,647.007,485.157Z" transform="translate(-360.031 -301.3)"/><ellipse class="q" cx="15.003" cy="15.398" rx="15.003" ry="15.398" transform="translate(141.431 185.453)"/><path class="i" d="M537.643,507.968c0,2.769-2.24,5.752-5,5.752s-5.009-2.983-5.009-5.752a5.015,5.015,0,0,1,10.013,0Z" transform="translate(-375.776 -313.355)"/><path class="i" d="M521.269,537.632h12.224a2.955,2.955,0,0,0,2.817-2.054l.658-2.059a2.955,2.955,0,0,0-1.787-3.679,22.8,22.8,0,0,0-15.389.172,2.945,2.945,0,0,0-1.906,3.57l.524,1.873A2.96,2.96,0,0,0,521.269,537.632Z" transform="translate(-370.62 -326.619)"/><path class="q" d="M678.051,531.492a2.907,2.907,0,0,1-2.907,2.907H589.5a2.907,2.907,0,0,1-2.907-2.907h0a2.907,2.907,0,0,1,2.907-2.912h85.647a2.907,2.907,0,0,1,2.907,2.912Z" transform="translate(-406.636 -326.618)"/><rect class="q" width="51.471" height="5.719" rx="2.86" transform="translate(180.149 211.694)"/><rect class="q" width="39.08" height="5.719" rx="2.86" transform="translate(233.05 211.694)"/><path class="o" d="M595.772,497.351a.562.562,0,0,0-.315-.953l-4.47-.648-2-4.056a.562.562,0,0,0-1.01,0l-1.873,3.813a.562.562,0,0,1-.424.31l-4.2.572a.562.562,0,0,0-.314.953l3.026,2.95a.553.553,0,0,1,.162.477l-.715,4.165a.582.582,0,0,0,.224.562.572.572,0,0,0,.6.043l3.741-1.968a.567.567,0,0,1,.524,0l3.736,1.968a.562.562,0,0,0,.82-.6l-.715-4.165a.563.563,0,0,1,.162-.477Z" transform="translate(-403.708 -307.146)"/><path class="p" d="M637.772,497.331a.562.562,0,0,0-.315-.953l-4.475-.648-2.016-4.075a.567.567,0,0,0-1.015,0l-1.868,3.813a.572.572,0,0,1-.424.31l-4.184.591a.562.562,0,0,0-.315.953l3.026,2.95a.553.553,0,0,1,.162.477l-.715,4.165a.562.562,0,0,0,.82.6l3.741-1.94a.576.576,0,0,1,.529,0l3.737,1.968a.562.562,0,0,0,.82-.6l-.715-4.165a.553.553,0,0,1,.162-.477Z" transform="translate(-425.692 -307.127)"/><path class="p" d="M679.772,497.351a.562.562,0,0,0-.315-.953l-4.475-.648-2-4.056a.562.562,0,0,0-1.01,0l-1.868,3.813a.572.572,0,0,1-.424.31l-4.2.572a.562.562,0,0,0-.315.953l3.026,2.95a.562.562,0,0,1,.162.477l-.715,4.165a.562.562,0,0,0,.82.6l3.741-1.94a.567.567,0,0,1,.524,0l3.741,1.968a.572.572,0,0,0,.6-.043.582.582,0,0,0,.224-.553l-.715-4.165a.553.553,0,0,1,.162-.477Z" transform="translate(-447.675 -307.146)"/><path class="p" d="M721.782,497.351a.567.567,0,0,0-.31-.953L717,495.75l-2-4.056a.562.562,0,0,0-1.01,0l-1.868,3.813a.581.581,0,0,1-.424.31l-4.208.572a.567.567,0,0,0-.31.953l3.026,2.95a.576.576,0,0,1,.162.477l-.715,4.165a.562.562,0,0,0,.219.562.572.572,0,0,0,.6.043l3.741-1.949a.567.567,0,0,1,.524,0l3.741,1.968a.562.562,0,0,0,.591-.043.572.572,0,0,0,.229-.553l-.715-4.165a.553.553,0,0,1,.162-.477Z" transform="translate(-469.669 -307.146)"/><path class="p" d="M763.782,497.351a.567.567,0,0,0-.31-.953L759,495.75l-2-4.056a.562.562,0,0,0-1.01,0l-1.868,3.813a.577.577,0,0,1-.429.31l-4.2.572a.567.567,0,0,0-.31.953l3.022,2.95a.553.553,0,0,1,.162.477l-.71,4.165a.562.562,0,0,0,.815.6l3.741-1.94a.567.567,0,0,1,.524,0l3.741,1.968a.562.562,0,0,0,.815-.6l-.71-4.165a.553.553,0,0,1,.162-.477Z" transform="translate(-491.652 -307.146)"/><path class="l" d="M694.782,586.672a.739.739,0,0,1-.734-.715,41.545,41.545,0,0,1,1.43-11.238c2.154-7.682,6.482-12.239,12.51-13.173a9.66,9.66,0,0,1,7.959,2.111c7.206,5.938,7.892,21.585,7.916,22.247a.735.735,0,0,1-1.468.057c0-.153-.686-15.651-7.387-21.17A8.245,8.245,0,0,0,708.245,563c-13.2,2.044-12.715,22.7-12.706,22.914a.743.743,0,0,1-.715.758Z" transform="translate(-462.88 -343.791)"/><path class="o" d="M640.339,646.456l10.737-44.608,40.319-.667,13,49.322h-60.56a3.531,3.531,0,0,1-3.493-4.046Z" transform="translate(-434.749 -364.618)"/><path class="r" d="M755.34,601.847l-7.83-.667,13,49.322h7.778a2.488,2.488,0,0,0,2.43-2.993Z" transform="translate(-490.864 -364.618)"/><path class="s" d="M708.292,632.523l-1.22-3.941a2.383,2.383,0,0,0-1.148-1.43l-5.628-3.064a2.383,2.383,0,0,0-1.773-.21l-4.032,1.082a2.411,2.411,0,0,0-1.458,1.12l-14.3,24.63a2.412,2.412,0,0,0,.953,3.336l12.7,6.915a2.383,2.383,0,0,0,3.336-1.063l12.453-25.621a2.426,2.426,0,0,0,.114-1.754Zm-7.554-2.435a1.8,1.8,0,1,1,1.992-.586,1.8,1.8,0,0,1-1.992.586Z" transform="translate(-454.696 -376.455)"/><path class="t" d="M708.541,641.624l10.218,3.493a.7.7,0,0,1,.386.987l-.291.534a.7.7,0,0,1-.872.31l-9.946-4.041a.7.7,0,0,1-.348-.953h0A.7.7,0,0,1,708.541,641.624Z" transform="translate(-469.982 -385.765)"/><path class="t" d="M705.362,647.5l10.237,3.512a.691.691,0,0,1,.386.987l-.286.534a.7.7,0,0,1-.872.31l-9.951-4.041a.7.7,0,0,1-.348-.953h0a.7.7,0,0,1,.834-.348Z" transform="translate(-468.328 -388.847)"/><circle class="u" cx="5.914" cy="5.914" r="5.914" transform="matrix(0.999, -0.034, 0.034, 0.999, 229.751, 266.667)"/><circle class="v" cx="5.719" cy="5.719" r="5.719" transform="translate(228.211 274.999) rotate(-64)"/><path class="i" d="M703.383,666.388a.477.477,0,0,1-.3-.1,5.034,5.034,0,0,0-.724-.477,4.766,4.766,0,0,0-5.033.272.486.486,0,1,1-.557-.8,5.781,5.781,0,0,1,6.9.257.477.477,0,0,1-.286.848Z" transform="translate(-464.199 -397.638)"/><circle class="t" cx="4.842" cy="4.842" r="4.842" transform="matrix(0.346, -0.938, 0.938, 0.346, 229.689, 275.405)"/><path class="w" d="M698.474,676.14l.253-.477a4.246,4.246,0,0,1-1.144-.987.305.305,0,0,1,.024-.4l.353-.367a.305.305,0,0,1,.477,0,3.6,3.6,0,0,0,1.063.906c.477.253.9.281,1.072-.043s0-.61-.567-1.134c-.786-.753-1.225-1.516-.786-2.326a1.728,1.728,0,0,1,2.25-.643l.253-.477a.305.305,0,0,1,.415-.119l.272.148a.305.305,0,0,1,.124.415l-.224.415a3.954,3.954,0,0,1,.925.743.3.3,0,0,1,0,.415l-.324.343a.305.305,0,0,1-.453,0,3.129,3.129,0,0,0-.91-.729c-.548-.3-.829-.162-.953.043s.1.605.7,1.215c.858.867,1.049,1.525.634,2.288a1.742,1.742,0,0,1-2.335.653l-.281.519a.314.314,0,0,1-.419.124l-.272-.148a.31.31,0,0,1-.138-.381Z" transform="translate(-464.699 -400.66)"/><path class="x" d="M724.989,618.8a.477.477,0,0,1-.234-.477c.219-2.03,1.978-3.393,3.417-4.18.434-.243.891-.477,1.33-.677a11.286,11.286,0,0,0,3.022-1.868,5.548,5.548,0,0,0,1.534-5.037,3.517,3.517,0,0,0-2.993-2.259c-1.339,0-3.865,1.1-5.719,8.8a.477.477,0,0,1-.886-.215c1.906-7.9,4.666-9.532,6.629-9.5a4.393,4.393,0,0,1,3.875,2.979,6.453,6.453,0,0,1-1.811,5.891,12.2,12.2,0,0,1-3.25,2.035c-.434.21-.877.424-1.3.653-1.02.558-2.759,1.754-2.945,3.484a.476.476,0,0,1-.5.405A.649.649,0,0,1,724.989,618.8Z" transform="translate(-478.8 -365.774)"/><path class="l" d="M676.6,586.328a.739.739,0,0,1-.734-.715,41.55,41.55,0,0,1,1.43-11.238c2.154-7.683,6.482-12.239,12.51-13.173a9.661,9.661,0,0,1,7.926,2.111c7.206,5.938,7.892,21.584,7.916,22.252a.734.734,0,0,1-1.468.052c0-.152-.686-15.651-7.387-21.17a8.23,8.23,0,0,0-6.763-1.792c-13.2,2.045-12.715,22.7-12.706,22.914a.743.743,0,0,1-.715.758Z" transform="translate(-453.365 -343.613)"/><path class="i" d="M565.216,310.619a1.072,1.072,0,0,1-1.063-.9c-.076-.477-.157-.92-.248-1.377a1.078,1.078,0,1,1,2.116-.41q.136.715.257,1.43a1.077,1.077,0,0,1-.886,1.239A1.1,1.1,0,0,1,565.216,310.619Zm-.982-4.666a1.077,1.077,0,0,1-1.044-.81c-.119-.453-.238-.905-.367-1.353a1.078,1.078,0,1,1,2.073-.591c.133.477.262.953.381,1.43a1.077,1.077,0,0,1-.777,1.311A1.048,1.048,0,0,1,564.234,305.953Zm-1.377-4.566a1.072,1.072,0,0,1-1.015-.724c-.157-.438-.315-.882-.477-1.32a1.079,1.079,0,0,1,2.021-.758c.172.477.334.915.477,1.373a1.082,1.082,0,0,1-.667,1.373A1.115,1.115,0,0,1,562.857,301.388Zm-1.744-4.432a1.072,1.072,0,0,1-.987-.643c-.191-.429-.386-.853-.581-1.277a1.077,1.077,0,1,1,1.949-.915c.2.439.405.877.605,1.325a1.077,1.077,0,0,1-.987,1.511Zm-2.092-4.289a1.082,1.082,0,0,1-.953-.567c-.219-.41-.448-.82-.677-1.225a1.078,1.078,0,0,1,1.873-1.068c.238.424.477.848.705,1.272a1.077,1.077,0,0,1-.438,1.458,1.039,1.039,0,0,1-.51.138Zm-2.411-4.1a1.082,1.082,0,0,1-.91-.477c-.253-.4-.51-.786-.767-1.177a1.077,1.077,0,0,1,1.787-1.2c.272.405.534.81.8,1.215a1.077,1.077,0,0,1-.906,1.659Zm-2.707-3.918a1.078,1.078,0,0,1-.867-.434c-.276-.377-.562-.748-.848-1.115a1.078,1.078,0,1,1,1.7-1.325c.3.381.591.767.877,1.153a1.072,1.072,0,0,1-.863,1.72ZM328,282.353a1.077,1.077,0,0,1,0-2.154h1.43a1.082,1.082,0,0,1,0,2.159H328Zm-3.336-.048h-.033l-1.43-.057a1.077,1.077,0,1,1,.1-2.149l1.43.052a1.077,1.077,0,1,1-.033,2.154Zm8.1-.062a1.077,1.077,0,1,1-.048-2.154l1.43-.076a1.079,1.079,0,1,1,.124,2.154q-.72.043-1.43.071Zm-12.868-.2h-.091q-.72-.057-1.43-.129a1.078,1.078,0,0,1,.214-2.145l1.406.124a1.078,1.078,0,0,1-.086,2.154Zm17.634-.1a1.077,1.077,0,0,1-.091-2.149l1.43-.129a1.077,1.077,0,1,1,.2,2.145q-.715.072-1.43.129Zm-22.366-.41a.776.776,0,0,1-.148,0q-.715-.1-1.43-.214a1.077,1.077,0,1,1,.338-2.126l1.4.21a1.077,1.077,0,0,1-.152,2.145Zm27.094-.062a1.077,1.077,0,0,1-.124-2.149l1.406-.176a1.079,1.079,0,0,1,.276,2.14l-1.43.176Zm208.673-.524a1.073,1.073,0,0,1-.82-.376c-.3-.357-.615-.71-.924-1.058a1.077,1.077,0,1,1,1.611-1.43c.319.362.639.724.953,1.091a1.072,1.072,0,0,1-.815,1.778Zm-203.95-.119a1.077,1.077,0,0,1-.157-2.145l1.4-.219a1.077,1.077,0,0,1,.353,2.116l-1.43.219A.888.888,0,0,1,346.983,280.818Zm-36.53-.1a1.143,1.143,0,0,1-.219-.024c-.477-.1-.953-.2-1.43-.305a1.078,1.078,0,0,1,.477-2.1l1.377.3a1.077,1.077,0,0,1-.214,2.135Zm41.215-.681a1.077,1.077,0,0,1-.2-2.14l1.4-.257a1.077,1.077,0,0,1,.4,2.116l-1.43.262a.866.866,0,0,1-.157.019Zm-45.833-.415a1.049,1.049,0,0,1-.291-.043c-.477-.129-.929-.267-1.4-.405a1.079,1.079,0,1,1,.629-2.064c.448.138.9.267,1.349.4a1.077,1.077,0,0,1-.291,2.116Zm50.518-.477a1.077,1.077,0,0,1-.214-2.135c.477-.091.929-.191,1.392-.286a1.079,1.079,0,1,1,.448,2.111l-1.43.291a1.087,1.087,0,0,1-.186.019Zm-55.065-.991a.981.981,0,0,1-.367-.067c-.477-.167-.91-.338-1.363-.515a1.078,1.078,0,0,1,.786-2.006c.434.172.872.338,1.315.477a1.077,1.077,0,0,1-.372,2.092Zm59.726,0a1.077,1.077,0,0,1-.234-2.13l1.387-.315a1.078,1.078,0,1,1,.477,2.1l-1.4.319a1.3,1.3,0,0,1-.219,0Zm186.7-.705a1.062,1.062,0,0,1-.772-.329c-.329-.334-.658-.667-.991-1a1.078,1.078,0,1,1,1.516-1.535c.343.338.681.682,1.02,1.029a1.049,1.049,0,0,1-.763,1.811Zm-182.055-.372a1.077,1.077,0,0,1-.253-2.126l1.382-.338a1.078,1.078,0,1,1,.519,2.092l-1.4.343a1.173,1.173,0,0,1-.243.01Zm-68.771-.734a1.087,1.087,0,0,1-.453-.1l-1.315-.629a1.078,1.078,0,1,1,.953-1.935c.419.21.844.41,1.268.605a1.077,1.077,0,0,1-.453,2.054Zm73.394-.415a1.082,1.082,0,0,1-.267-2.126l1.382-.353a1.077,1.077,0,1,1,.543,2.083l-1.387.357a1.067,1.067,0,0,1-.262.019Zm4.609-1.215a1.077,1.077,0,0,1-.276-2.116l1.377-.376a1.079,1.079,0,0,1,.567,2.083l-1.387.372a.954.954,0,0,1-.272.019Zm-82.225-.572a1.111,1.111,0,0,1-.539-.143c-.419-.243-.839-.477-1.253-.743a1.078,1.078,0,1,1,1.125-1.84c.4.243.8.477,1.206.715a1.077,1.077,0,0,1-.539,2.011Zm251.637,0a1.072,1.072,0,0,1-.724-.281c-.348-.315-.7-.624-1.053-.953a1.082,1.082,0,1,1,1.43-1.625l1.077.953a1.072,1.072,0,0,1,.076,1.52,1.058,1.058,0,0,1-.81.372Zm-164.8-.715a1.077,1.077,0,0,1-.291-2.116l1.373-.386a1.077,1.077,0,1,1,.586,2.073l-1.377.386a1.047,1.047,0,0,1-.291.043Zm4.58-1.306a1.077,1.077,0,0,1-.3-2.116l1.368-.4a1.078,1.078,0,1,1,.605,2.068l-1.377.4a1.084,1.084,0,0,1-.3.048Zm-95.427-.543a1.063,1.063,0,0,1-.62-.2c-.4-.281-.791-.562-1.182-.858a1.078,1.078,0,1,1,1.292-1.725c.372.281.748.553,1.13.82a1.077,1.077,0,0,1-.62,1.959Zm252.018-.534A1.091,1.091,0,0,1,540,270.8c-.367-.3-.734-.586-1.106-.872a1.077,1.077,0,1,1,1.315-1.706c.386.3.763.6,1.139.9a1.077,1.077,0,0,1-.677,1.906Zm-152.031-.257a1.077,1.077,0,0,1-.305-2.111l1.368-.405a1.077,1.077,0,1,1,.615,2.064l-1.368.41a1.183,1.183,0,0,1-.3.038Zm4.566-1.363a1.077,1.077,0,0,1-.31-2.111l1.373-.41a1.077,1.077,0,0,1,.62,2.064l-1.368.41a1.029,1.029,0,0,1-.3.043Zm-108.309-.763a1.082,1.082,0,0,1-.705-.262c-.372-.319-.734-.648-1.091-.977a1.078,1.078,0,0,1,1.463-1.582c.338.315.686.624,1.039.929a1.077,1.077,0,0,1-.705,1.906Zm251.975-.477a1.086,1.086,0,0,1-.624-.2c-.381-.276-.767-.543-1.158-.81a1.078,1.078,0,1,1,1.22-1.778q.6.41,1.187.829a1.077,1.077,0,0,1-.624,1.954Zm-139.087-.124a1.077,1.077,0,0,1-.315-2.111l1.368-.415a1.079,1.079,0,0,1,.629,2.064l-1.373.415a1.163,1.163,0,0,1-.31.029Zm4.561-1.387a1.077,1.077,0,0,1-.315-2.106l1.368-.419a1.078,1.078,0,0,1,.624,2.064l-1.368.415a1,1,0,0,1-.31.029Zm130.584-1.134a1.091,1.091,0,0,1-.572-.167c-.4-.253-.8-.477-1.2-.743a1.078,1.078,0,1,1,1.115-1.844l1.234.763a1.077,1.077,0,0,1-.577,1.992Zm-251.446-.172a1.072,1.072,0,0,1-.786-.338c-.334-.357-.662-.72-.987-1.082a1.079,1.079,0,1,1,1.616-1.43c.31.353.624.7.953,1.034a1.082,1.082,0,0,1-.052,1.525,1.063,1.063,0,0,1-.763.272Zm125.442-.072a1.077,1.077,0,0,1-.31-2.111l1.368-.415a1.082,1.082,0,0,1,.62,2.068l-1.368.41a1.162,1.162,0,0,1-.329.029Zm4.566-1.4a1.077,1.077,0,0,1-.31-2.111l1.373-.405a1.077,1.077,0,1,1,.615,2.064l-1.373.41A1.12,1.12,0,0,1,411.489,263.89Zm117.335-.815a1.068,1.068,0,0,1-.519-.133q-.619-.343-1.244-.672a1.079,1.079,0,1,1,1.01-1.906l1.277.691a1.077,1.077,0,0,1-.524,2.021Zm-112.765-.529a1.077,1.077,0,0,1-.3-2.111l1.377-.4a1.079,1.079,0,0,1,.6,2.073l-1.368.4a1.149,1.149,0,0,1-.324.057Zm-137.681-.839a1.063,1.063,0,0,1-.853-.419c-.3-.386-.586-.777-.872-1.172a1.079,1.079,0,0,1,1.749-1.263c.272.381.548.753.834,1.125a1.077,1.077,0,0,1-.2,1.511A1.092,1.092,0,0,1,278.379,261.707Zm142.246-.477a1.077,1.077,0,0,1-.3-2.116l1.382-.386a1.077,1.077,0,1,1,.577,2.073l-1.373.386a1.05,1.05,0,0,1-.291.062Zm103.948-.353a1.11,1.11,0,0,1-.477-.1l-1.277-.605a1.077,1.077,0,1,1,.906-1.954c.438.2.877.405,1.311.62a1.077,1.077,0,0,1-.477,2.045Zm-99.358-.9a1.077,1.077,0,0,1-.281-2.116l1.387-.372a1.078,1.078,0,1,1,.558,2.083l-1.377.367a.984.984,0,0,1-.286.038Zm95.007-1.034a1.071,1.071,0,0,1-.415-.081c-.434-.181-.872-.362-1.311-.534a1.078,1.078,0,1,1,.8-2c.448.176.9.357,1.339.543a1.077,1.077,0,0,1-.415,2.073Zm-90.4-.186a1.077,1.077,0,0,1-.267-2.121l1.387-.353a1.077,1.077,0,1,1,.529,2.087l-1.382.353a1,1,0,0,1-.267.033Zm-154.161-.967a1.068,1.068,0,0,1-.915-.505c-.257-.415-.51-.829-.753-1.249a1.078,1.078,0,0,1,1.859-1.091c.234.405.477.805.724,1.2a1.077,1.077,0,0,1-.915,1.644Zm158.774-.186a1.077,1.077,0,0,1-.253-2.126l1.4-.334a1.077,1.077,0,1,1,.477,2.1l-1.387.329a.919.919,0,0,1-.224.033Zm81.334-.386a1.046,1.046,0,0,1-.358-.062c-.448-.157-.891-.31-1.339-.477a1.078,1.078,0,0,1,.681-2.045l1.373.477a1.077,1.077,0,0,1-.357,2.092Zm-76.683-.71a1.077,1.077,0,0,1-.233-2.13l1.4-.31a1.08,1.08,0,0,1,.477,2.107l-1.392.305a1.021,1.021,0,0,1-.253.043Zm72.141-.72a1.115,1.115,0,0,1-.3-.043l-.214-.062-1.144-.319a1.077,1.077,0,1,1,.567-2.078c.391.1.786.215,1.177.329l.214.062a1.077,1.077,0,0,1-.3,2.111Zm-67.48-.253a1.077,1.077,0,0,1-.214-2.135l1.43-.281a1.077,1.077,0,1,1,.419,2.111l-1.392.286a1.163,1.163,0,0,1-.243,0Zm4.68-.91a1.077,1.077,0,0,1-.2-2.135l1.43-.257a1.079,1.079,0,1,1,.376,2.126l-1.4.253Zm58.191-.052a1.1,1.1,0,0,1-.248-.029l-1.377-.319a1.078,1.078,0,1,1,.477-2.1l1.43.324a1.077,1.077,0,0,1-.253,2.126Zm-53.5-.753a1.077,1.077,0,0,1-.172-2.145l1.43-.224a1.078,1.078,0,1,1,.329,2.13l-1.406.224Zm-179.782-.167a1.077,1.077,0,0,1-.953-.6c-.219-.434-.429-.872-.639-1.311a1.079,1.079,0,1,1,1.954-.915c.2.424.4.844.61,1.258a1.077,1.077,0,0,1-.953,1.563Zm228.622-.076a1.024,1.024,0,0,1-.2,0c-.477-.091-.925-.176-1.392-.257a1.077,1.077,0,1,1,.376-2.121c.477.081.953.172,1.43.262a1.077,1.077,0,0,1-.2,2.135Zm-44.127-.477a1.082,1.082,0,0,1-.143-2.149c.477-.062.953-.129,1.43-.186a1.077,1.077,0,1,1,.276,2.135l-1.43.186a.776.776,0,0,1-.133.019Zm39.428-.329a.871.871,0,0,1-.157,0l-1.406-.2a1.077,1.077,0,0,1,.286-2.135q.715.091,1.43.2a1.077,1.077,0,0,1-.153,2.145Zm-34.7-.257a1.077,1.077,0,0,1-.119-2.149l1.43-.153a1.078,1.078,0,0,1,.219,2.145l-1.43.152Zm29.963-.329h-.11l-1.43-.138a1.077,1.077,0,1,1,.2-2.145c.477.043.953.086,1.43.138a1.077,1.077,0,0,1-.11,2.149Zm-25.221-.129a1.077,1.077,0,0,1-.086-2.149l1.43-.114a1.078,1.078,0,0,1,.157,2.149l-1.43.11Zm20.493-.262h-.072l-1.43-.081a1.079,1.079,0,1,1,.114-2.154l1.43.086a1.078,1.078,0,1,1-.067,2.154Zm-15.727-.057a1.077,1.077,0,0,1-.062-2.145l1.43-.067a1.078,1.078,0,1,1,.091,2.154l-1.43.067Zm10.961-.153h-.062c-.477,0-.953-.024-1.43-.029a1.082,1.082,0,0,1,.033-2.159l1.43.029a1.082,1.082,0,0,1,0,2.159Zm-6.2,0a1.077,1.077,0,1,1-.024-2.154h1.43a1.1,1.1,0,0,1,1.087,1.068,1.077,1.077,0,0,1-1.067,1.087h-1.43Zm-205.408-2.278a1.082,1.082,0,0,1-1.006-.682c-.176-.453-.353-.906-.519-1.363a1.078,1.078,0,1,1,2.025-.739c.162.438.329.872.477,1.306a1.082,1.082,0,0,1-.605,1.4,1.187,1.187,0,0,1-.41.062Zm-1.568-4.5a1.082,1.082,0,0,1-1.034-.767c-.138-.477-.272-.929-.4-1.4a1.078,1.078,0,1,1,2.078-.572q.186.672.386,1.344a1.077,1.077,0,0,1-.72,1.344,1.02,1.02,0,0,1-.348.033Zm-1.191-4.613a1.082,1.082,0,0,1-1.053-.853q-.15-.715-.286-1.43a1.077,1.077,0,1,1,2.116-.4c.086.477.181.915.276,1.373a1.077,1.077,0,0,1-.824,1.282,1.243,1.243,0,0,1-.267.014Zm-.815-4.694a1.072,1.072,0,0,1-1.068-.953c-.067-.477-.124-.953-.176-1.43a1.077,1.077,0,1,1,2.14-.234c.052.477.11.929.172,1.392a1.072,1.072,0,0,1-.925,1.211.72.72,0,0,1-.181,0Zm-.453-4.742a1.072,1.072,0,0,1-1.072-1.015c-.029-.477-.048-.953-.067-1.454a1.078,1.078,0,1,1,2.154-.071c0,.477.038.953.062,1.4a1.077,1.077,0,0,1-1.015,1.139Zm-.081-4.766H267.3a1.072,1.072,0,0,1-1.053-1.1c0-.477.024-.953.048-1.43a1.078,1.078,0,0,1,2.154.091c-.024.477-.038.953-.048,1.406a1.077,1.077,0,0,1-1.115,1.02Zm.281-4.766h-.1a1.077,1.077,0,0,1-.953-1.177q.071-.72.157-1.43a1.078,1.078,0,0,1,2.14.257c-.057.477-.11.953-.153,1.4a1.082,1.082,0,0,1-1.134.953Zm.643-4.723h-.186a1.082,1.082,0,0,1-.877-1.249q.129-.72.272-1.43a1.077,1.077,0,1,1,2.111.419c-.091.477-.176.92-.257,1.382a1.082,1.082,0,0,1-1.1.877Zm1.01-4.656a1.059,1.059,0,0,1-.272-.033,1.082,1.082,0,0,1-.81-1.3c.124-.477.248-.953.381-1.43a1.078,1.078,0,1,1,2.073.591c-.129.448-.253.9-.367,1.353a1.082,1.082,0,0,1-1.044.82Zm1.377-4.561a1,1,0,0,1-.353-.062,1.077,1.077,0,0,1-.667-1.368c.162-.477.324-.92.477-1.373a1.079,1.079,0,1,1,2.021.758c-.167.438-.324.877-.477,1.32a1.082,1.082,0,0,1-1.039.724Zm1.744-4.432a1.1,1.1,0,0,1-.434-.1,1.072,1.072,0,0,1-.548-1.43c.2-.443.4-.886.605-1.325a1.079,1.079,0,0,1,1.949.925q-.3.639-.586,1.272a1.072,1.072,0,0,1-1.044.653Zm2.121-4.289a1.077,1.077,0,0,1-.953-1.6c.234-.424.477-.848.72-1.268a1.078,1.078,0,0,1,1.859,1.091c-.234.4-.477.81-.691,1.215a1.077,1.077,0,0,1-.972.591Zm2.478-4.07a1.063,1.063,0,0,1-.6-.181,1.082,1.082,0,0,1-.3-1.5c.272-.4.543-.805.824-1.2a1.078,1.078,0,0,1,1.763,1.239c-.267.381-.534.767-.791,1.158a1.077,1.077,0,0,1-.939.5Zm2.8-3.865a1.049,1.049,0,0,1-.662-.229,1.072,1.072,0,0,1-.186-1.511c.3-.381.605-.763.91-1.134a1.079,1.079,0,0,1,1.668,1.368c-.3.362-.591.724-.882,1.1a1.072,1.072,0,0,1-.886.429Zm3.079-3.636a1.058,1.058,0,0,1-.724-.281,1.077,1.077,0,0,1-.071-1.525c.329-.357.658-.71.991-1.063a1.079,1.079,0,0,1,1.558,1.492c-.324.338-.643.682-.953,1.025a1.077,1.077,0,0,1-.848.372Zm3.336-3.4a1.077,1.077,0,0,1-.743-1.863c.353-.329.705-.662,1.068-.987a1.077,1.077,0,1,1,1.43,1.6q-.524.477-1.029.953a1.087,1.087,0,0,1-.772.319Zm3.57-3.155a1.077,1.077,0,0,1-.686-1.906c.376-.31.753-.61,1.134-.91a1.077,1.077,0,1,1,1.33,1.692c-.367.291-.729.586-1.091.882a1.072,1.072,0,0,1-.72.262Zm3.779-2.893a1.082,1.082,0,0,1-.624-1.959c.391-.276.786-.558,1.187-.829a1.077,1.077,0,0,1,1.215,1.778l-1.149.805a1.068,1.068,0,0,1-.662.224Zm3.965-2.64a1.077,1.077,0,0,1-.567-1.992c.41-.257.824-.505,1.239-.753a1.078,1.078,0,0,1,1.1,1.854c-.405.238-.805.477-1.206.729a1.068,1.068,0,0,1-.6.181Zm4.127-2.383a1.077,1.077,0,0,1-.51-2.025c.424-.229.853-.477,1.282-.672a1.077,1.077,0,1,1,.982,1.906c-.419.21-.834.429-1.249.648a1.02,1.02,0,0,1-.539.167Zm4.265-2.116a1.077,1.077,0,0,1-.448-2.054c.438-.2.882-.4,1.32-.591a1.077,1.077,0,1,1,.863,1.973l-1.287.577a1.053,1.053,0,0,1-.481.119Zm4.389-1.849a1.077,1.077,0,0,1-.391-2.083c.477-.176.9-.343,1.358-.51a1.077,1.077,0,1,1,.739,2.021c-.438.162-.882.329-1.315.5a1.129,1.129,0,0,1-.424.086Zm4.489-1.587a1.077,1.077,0,0,1-.329-2.107c.477-.143.92-.291,1.382-.429a1.078,1.078,0,1,1,.624,2.064l-1.349.419a1.129,1.129,0,0,1-.367.076Zm4.58-1.32a1.082,1.082,0,0,1-.272-2.126l1.406-.348a1.078,1.078,0,1,1,.5,2.1l-1.368.338a1.064,1.064,0,0,1-.3.062ZM324,164.594a1.077,1.077,0,0,1-.2-2.135l1.43-.267a1.077,1.077,0,1,1,.377,2.121l-1.387.262a1.009,1.009,0,0,1-.248.043Zm4.7-.786a1.077,1.077,0,0,1-.148-2.145q.715-.1,1.43-.186a1.077,1.077,0,0,1,.253,2.14l-1.4.181Zm4.737-.515a1.077,1.077,0,0,1-.086-2.149l1.43-.1a1.079,1.079,0,1,1,.133,2.154q-.715.043-1.43.1Zm10.961-.129h-.114c-.477-.029-.953-.048-1.43-.067a1.078,1.078,0,0,1,.086-2.154l1.43.067a1.077,1.077,0,0,1-.057,2.154Zm-6.2-.11a1.077,1.077,0,1,1-.024-2.154h1.43a1.082,1.082,0,0,1,0,2.159h-1.43Z" transform="translate(-238.965 -134.169)"/><path class="y" d="M244.336,48.05l-.286,8.583,5.933-3.493Z" transform="translate(-127.739 -25.146)"/><path class="l" d="M484.615,137.692l-23.867,19.54a2.168,2.168,0,0,1-3.107-.372l-18.73-24.687a.872.872,0,0,1-.057-.953.882.882,0,0,1,.882-.419Z" transform="translate(-329.249 -118.409)"/><path class="y" d="M244.66,44.072l38.761-3.622-35.753,7.621-.181,2.373Z" transform="translate(-128.059 -21.168)"/><path class="y" d="M249.154,58.794l-5.1,2.23,3.3-4.585Z" transform="translate(-127.739 -29.537)"/><path class="z" d="M332.538,390.8a15.655,15.655,0,0,0-8,3.265c-4.084,3.279-4.261,8.378-5.719,13.011-.815,2.545-2.345,5.676-4.475,7.406-4.18,3.4-9.3,3.717-12.458,8.478-8.045,12.143-3.174,32.908,13.2,33.957,10.118.648,23-4.161,23.548-15.947C339.373,424.579,337.866,389.221,332.538,390.8Z" transform="translate(-255.627 -254.477)"/><path class="aa" d="M435.313,546.994l15.661-2.859a.419.419,0,0,1,.477.324l5.457,23.639a.424.424,0,0,1-.062.338.419.419,0,0,1-.291.181l-21.094,3.145a.429.429,0,0,1-.343-.1.425.425,0,0,1-.148-.324V547.4A.419.419,0,0,1,435.313,546.994Z" transform="translate(-327.276 -334.757)"/><path class="ab" d="M460,547.553a.557.557,0,1,0,.17-.4A.562.562,0,0,0,460,547.553Z" transform="translate(-340.377 -336.259)"/><circle class="ac" cx="0.562" cy="0.562" r="0.562" transform="translate(111.907 212.385)"/><path class="ad" d="M444.77,540.31h0a.191.191,0,0,0,.191-.191c0-2.731.424-9.861,2.354-10.07,2.25-.234,4.89,7.911,4.99,8.44a.181.181,0,0,0,.191.181.2.2,0,0,0,.191-.2c0-.2-1.906-6.32-4-8.221a1.835,1.835,0,0,0-1.43-.577c-1.153.124-1.954,1.94-2.383,5.4a46.308,46.308,0,0,0-.315,5.052.191.191,0,0,0,.21.191Z" transform="translate(-332.296 -327.186)"/><path class="ae" d="M396.136,467.494s8.579,19.54,20.765,22.59c2.383.477,5.128.257,6.367,1.029,1.406.872-.3,3.231-.991,5.023s-.953.953-1.253.376.977-2.383-.7-3.079-1.168.381-.381,1.315a3.651,3.651,0,0,1,.71,2.464,18.836,18.836,0,0,1-2.512-1.115,4.154,4.154,0,0,1-1.74-2.164c-2.411-.281-17.519-2.655-23.939-18.539C392.466,475.4,391.846,459.626,396.136,467.494Z" transform="translate(-305.013 -293.494)"/><path class="i" d="M325.2,558.095a.191.191,0,0,0,.191-.162c0-.062,1.029-6.415,2.983-7.525a1.034,1.034,0,0,1,.953-.071c2.626,1.044,1.287,7.03,1.272,7.087a.2.2,0,1,0,.376.086c.057-.257,1.43-6.362-1.506-7.53a1.43,1.43,0,0,0-1.292.1c-2.111,1.2-3.131,7.53-3.174,7.8a.2.2,0,0,0,.162.224Z" transform="translate(-269.719 -337.76)"/><path class="af" d="M110.75,459.939,120.873,459l2.254,1.253-1.935,2.412-9.241-.939Z" transform="translate(-57.968 -240.243)"/><path class="ag" d="M314.156,693.6l-.167,3.875a1.592,1.592,0,0,1-1.282,1.492,24.58,24.58,0,0,1-5.128.477,1.363,1.363,0,0,1-1.277-1.668,14.02,14.02,0,0,1,2.183-5.214l4.256-.334a1.315,1.315,0,0,1,1.415,1.372Z" transform="translate(-259.911 -412.271)"/><path class="ah" d="M377.341,595.37l1.048,4.17s-.505,24.549-.172,34.314a7.626,7.626,0,0,0,1.468,4.251l4.709,6.467-11.119-5.443-.31-1.282,1.554-2.531L370.111,608.2a8.421,8.421,0,0,1,.591-4.7l1.878-4.289Z" transform="translate(-293.272 -361.577)"/><path class="ai" d="M387.642,690.378l-3.389.262a2.049,2.049,0,0,1-1.687-.667c-1.163-1.292-3.56-3.813-4.613-3.813-1.43,0-.848,5.014-.848,5.014l-.791.062-1.487-6.153a3.7,3.7,0,0,1,1.635-4h0a5.169,5.169,0,0,0,2.34,3.274c1.83.891,7.492,4.313,7.492,4.313a4.771,4.771,0,0,1,1.382-.071.9.9,0,0,1-.033,1.782Z" transform="translate(-295.742 -406.439)"/><path class="aj" d="M330.989,600.33s-12,27.809-13.769,34.085a58.693,58.693,0,0,0-2.145,11.915c0,.758-.867,1.554-3.45,1.754a2.469,2.469,0,0,1-2.383-.872,1.5,1.5,0,0,1-.172-1.43c.686-1.711,2.859-7.187,3.632-9.651.925-2.945,2.383-16.075,3.374-20.674s2.14-9.6,7.668-14.555C323.755,600.878,327.467,596.613,330.989,600.33Z" transform="translate(-261.322 -363.377)"/><path class="ak" d="M358.5,473.583c2.435-15.684-7.454-23.677-7.454-23.677,2.955-3.336,7.425-5.824,10.852-7.411a8.683,8.683,0,0,1,9.327,1.306c2.859,2.454,5.929,5.929,5.514,9.179-.434,3.446-5.514,20.846-5.514,20.846A14.046,14.046,0,0,1,358.5,473.583Z" transform="translate(-283.351 -281.139)"/><path class="al" d="M344.75,516.864c1.134-4.57,7.463-8.254,7.463-8.254a14.1,14.1,0,0,0,12.725.243,25.44,25.44,0,0,1,1.172,9.756c-.548,4.785-3.932,35.52-3.932,35.52-8.907,2.54-23.119-.057-23.119-.057C344.04,543.386,343.635,521.435,344.75,516.864Z" transform="translate(-277.075 -316.166)"/><path class="am" d="M373.071,421.468l-1.644,11.138c-.191,1.187.548,1.3,1.749,1.4,1.906.162,4.342.1,5.061-1.468a1.43,1.43,0,0,0,.11-.51l.553-9.3a1.663,1.663,0,0,0-1.1-1.663l-2.535-.9a1.663,1.663,0,0,0-2.192,1.3Z" transform="translate(-294.001 -269.824)"/><path class="an" d="M96.69,485.176l-3.47-2,8.355-22.209,2.006,1.353Z" transform="translate(-48.793 -241.274)"/><path class="i" d="M329.02,561.451h0a.2.2,0,0,0,.176-.21c0-.062-.448-6.505,1.377-8.578a1.659,1.659,0,0,1,1.191-.62,1.578,1.578,0,0,1,1.211.477c1.973,1.84,2.087,8.211,2.087,8.278a.186.186,0,0,0,.2.186.191.191,0,0,0,.191-.191c0-.272-.119-6.605-2.211-8.555a1.982,1.982,0,0,0-1.5-.572,2.064,2.064,0,0,0-1.42.729c-1.959,2.24-1.477,8.812-1.473,8.879a.2.2,0,0,0,.172.176Z" transform="translate(-271.702 -338.701)"/><path class="ao" d="M343.91,465.051c-.477.658-8.016,9.608-10.17,19.592a57.531,57.531,0,0,0-1.43,16.652s2.188,1.635,1.4,2.788-.577,1.949-1.582,2.173-2.254.539-2.1-1.43-2.216-2.383-1.825-3.584-2.288-33.423,10.685-42.163l.181-.119C344.554,460.924,344.711,463.993,343.91,465.051Z" transform="translate(-271.369 -290.178)"/><path class="ap" d="M117.767,461.78l-10.375.967L100.5,485.6l14.893.386Z" transform="translate(-52.603 -241.698)"/><path class="aq" d="M308.17,594.742h.038a.138.138,0,0,0,.1-.167l-.667-2.54,5.242-16.3a.138.138,0,1,0-.262-.086l-5.252,16.318a.138.138,0,0,0,0,.076l.677,2.578A.143.143,0,0,0,308.17,594.742Z" transform="translate(-260.482 -351.199)"/><path class="ar" d="M302.589,611.26a.133.133,0,0,0,.062,0l1.8-.858a.138.138,0,0,0,.062-.186.134.134,0,0,0-.181-.062l-1.8.858a.133.133,0,0,0-.067.181.138.138,0,0,0,.124.067Z" transform="translate(-257.914 -369.308)"/><path class="as" d="M372.91,400.453s4.108,1.12,7.511,6.377,1.778,8.1-.653,8.812a11.638,11.638,0,0,1-10.556-1.964C364.8,410.576,367.6,399.19,372.91,400.453Z" transform="translate(-291.715 -259.504)"/><path class="at" d="M370.152,420.558s-2.054-4.032-3.813-2.083,2.135,3.694,3.636,4.227Z" transform="translate(-291.119 -268.709)"/><path class="au" d="M365.44,404.962s-4.041-7.826,3.231-8.9l1.873.953s2.059-4.914-2.621-6.5a9.413,9.413,0,0,0-12.034,7.4c-1.072,6.162.539,9.832,4.027,12.239s4.332-.953,4.332-.953-2.049-2.416-1.549-3.922,2.316,0,2.316,0Z" transform="translate(-285.712 -254.137)"/><g class="av" transform="translate(45.635 140.733)"><path class="i" d="M305.29,471.183h.057a.129.129,0,0,0,.091-.157c-2.03-7.349,3.632-11.624,8.626-15.4a.129.129,0,0,0,.029-.181.133.133,0,0,0-.181-.024c-5.061,3.813-10.8,8.154-8.721,15.67a.129.129,0,0,0,.1.091Z" transform="translate(-304.753 -429.047)"/><path class="i" d="M341.248,418.986a.134.134,0,0,0,.11-.062,22.814,22.814,0,0,0,2.383-6.639,23.533,23.533,0,0,1,2.354-6.6,26.152,26.152,0,0,1,3.646-4.532l.782-.839a.129.129,0,0,0-.191-.172l-.777.834a26.538,26.538,0,0,0-3.679,4.58,24.392,24.392,0,0,0-2.383,6.672,22.686,22.686,0,0,1-2.383,6.567.129.129,0,0,0,.043.176A.157.157,0,0,0,341.248,418.986Z" transform="translate(-323.773 -400.107)"/></g><path class="aw" d="M909.155,679.37s.567,3.2.844,6.372a2.188,2.188,0,0,1-2.092,2.383c-4.222.176-13.259.52-16.5.372a.71.71,0,0,1-.624-.953h0a1.6,1.6,0,0,1,.815-.858l14.922-6.858Z" transform="translate(-565.833 -405.544)"/><path class="ax" d="M925,674.729l-.477,3.813s-2.617,1.215-4.4-.152L921.2,674.1Z" transform="translate(-581.211 -402.785)"/><path class="ay" d="M925.026,524.214c.2,1,1.053,49.941-4.18,71.874a.748.748,0,0,0,.438.867,13.013,13.013,0,0,0,4.261.863,1.287,1.287,0,0,0,1.272-.92c1.492-5.09,8.66-30.582,9.594-54.936,1.044-27.218,0-.953,0-.953L935.8,524.19Z" transform="translate(-581.58 -324.32)"/><path class="az" d="M958.847,682.87a23.123,23.123,0,0,1,1.773,5.919,1.339,1.339,0,0,1-1.172,1.6c-1.4.133-3.541.31-5.242.3a1.325,1.325,0,0,1-1.315-1.482,11.187,11.187,0,0,1,2.616-6.148Z" transform="translate(-598.358 -407.376)"/><path class="ba" d="M962.459,672.284l-1.063,5.8a3.739,3.739,0,0,1-3.126.214l.505-6.234Z" transform="translate(-601.179 -401.718)"/><path class="bb" d="M949.882,524.417c4.289,25.821-.953,63.82-2.683,71.259a1.163,1.163,0,0,1-.953.877,7.716,7.716,0,0,1-3.336-.133,1.058,1.058,0,0,1-.763-.977c-.234-6.015.191-42.926-3.813-57.514a3.3,3.3,0,0,0-1.277-1.825l-7.707-5.5-.591-8.888Z" transform="translate(-585.733 -323.022)"/><path class="bc" d="M895.53,422.427c12.82-.214,26.97,3.365,26.97,3.365,3.813,22.3.667,48.025.667,48.025-9.927,2.6-21.127-1.592-21.127-1.592-1.649-9.322-9.346-35.553-9.346-35.553A42.278,42.278,0,0,1,877,431.7a27.566,27.566,0,0,0,5.433-11.367,42.931,42.931,0,0,0,13.1,2.1Z" transform="translate(-558.641 -269.958)"/><path class="bd" d="M836.41,384.03a2.45,2.45,0,0,1,2.86-.8c1.906,7.968,11.781,14.431,21.947,17.591a27.4,27.4,0,0,1-5.433,11.367C838.9,402.7,836.41,384.03,836.41,384.03Z" transform="translate(-537.396 -250.449)"/><path class="be" d="M830.714,370.872c-.133.419,1.392,1.058,2.292-.653.033-.824.529-4.342.038-5.009a65.325,65.325,0,0,0-7.678-8.03,1.2,1.2,0,0,0-.152,1.673l2.459,2.559a11.386,11.386,0,0,0-1.43,2.859,3.445,3.445,0,0,0,.343,2.535,29.765,29.765,0,0,0,1.577,2.578A3.393,3.393,0,0,0,830.714,370.872Z" transform="translate(-531.394 -236.905)"/><path class="bf" d="M832.383,369.55l2.24,1.906.705,1.906-2,2.216a25.644,25.644,0,0,0-1.172-4.561C831.659,370.208,831.945,369.788,832.383,369.55Z" transform="translate(-535.033 -243.379)"/><path class="bg" d="M962.15,444.231l4.918-12.391s11.977,8.14,13.945,18.458a27.25,27.25,0,0,0-10.089,2.826C969.108,449.007,962.15,444.231,962.15,444.231Z" transform="translate(-603.21 -275.983)"/><path class="bh" d="M934.007,402.89l4.08,11.8a.429.429,0,0,1-.2.515,9.607,9.607,0,0,1-9.946-.672,1.992,1.992,0,0,1-.92-1.43L925.7,402.89Z" transform="translate(-584.132 -260.83)"/><path class="bi" d="M920.157,380s-4.48,8.436-3.9,11.843,6.124,3.16,10.962.391l3.384-9.1Z" transform="translate(-579.161 -248.849)"/><path class="bj" d="M928.833,380.979a.348.348,0,0,1-.152-.51,9.056,9.056,0,0,0,1.244-2.645s.805-.515-2.049-1.2-7.111-1.744-8.007-4.175,1.43-8.331,5.076-3.584a.348.348,0,0,0,.553,0,3.618,3.618,0,0,1,4.365-1.43,3.284,3.284,0,0,1,2.25,3.174.343.343,0,0,0,.41.353,4.012,4.012,0,0,1,4.68,2.183c.953,2.1.334,3.288-.234,3.87a.348.348,0,0,0,.148.577,2.083,2.083,0,0,1,1.473,2.383c-.119,2.207-2.583,2.011-3.288,1.906a.334.334,0,0,0-.305.11c-.605.663-3.336,3.493-6.248,3.813a.348.348,0,0,1-.367-.477l1.268-3.694a.343.343,0,0,0-.186-.429Z" transform="translate(-580.979 -242.084)"/><path class="bk" d="M936.727,396.161s3.193-2.188,3.427-.343-2.859,2.669-4.413,1.983Z" transform="translate(-589.387 -256.742)"/><path class="bl" d="M884.351,579.9a.891.891,0,0,0,.877-.734l5.814-31.2a.892.892,0,1,0-1.754-.329l-5.814,31.207a.891.891,0,0,0,.715,1.039A.952.952,0,0,0,884.351,579.9Z" transform="translate(-562.022 -336.209)"/><path class="bm" d="M781.813,580.052H829.6a1.787,1.787,0,1,0,0-3.574h-46.61l-12.077-27.914h68.967a1.787,1.787,0,0,0,0-3.574H768.188a1.787,1.787,0,0,0-1.639,2.5l13.626,31.488A1.782,1.782,0,0,0,781.813,580.052Z" transform="translate(-500.752 -335.207)"/><path class="bn" d="M803.447,596.411H841.1a1.859,1.859,0,0,0,1.782-1.33l22.428-74.824h15.665a1.859,1.859,0,1,0,0-3.717H863.926a1.863,1.863,0,0,0-1.782,1.33l-22.4,74.824h-36.3a1.863,1.863,0,0,0,0,3.722Z" transform="translate(-519.217 -320.316)"/><circle class="bo" cx="4.651" cy="4.651" r="4.651" transform="translate(316.491 275.005) rotate(-9.25)"/><path class="bp" d="M877.47,686.336A3.336,3.336,0,1,0,880.806,683,3.336,3.336,0,0,0,877.47,686.336Z" transform="translate(-558.887 -407.444)"/><circle class="bq" cx="4.651" cy="4.651" r="4.651" transform="translate(281.035 275.422) rotate(-13.34)"/><path class="br" d="M803.65,686.336A3.336,3.336,0,1,0,807.01,683a3.336,3.336,0,0,0-3.36,3.336Z" transform="translate(-520.249 -407.444)"/><path class="bs" d="M867.681,580.506a.891.891,0,0,0,.9-.872l.615-30.921a.891.891,0,0,0-1.782-.033l-.62,30.916a.891.891,0,0,0,.877.91Z" transform="translate(-553.297 -336.681)"/><path class="bt" d="M848.636,580.427a.891.891,0,0,0,.891-.891V548.758a.9.9,0,0,0-1.787,0v30.778a.891.891,0,0,0,.9.891Z" transform="translate(-543.326 -336.745)"/><path class="bu" d="M826.076,580.222h0a.9.9,0,0,0,.887-.9l-.21-30.635a.9.9,0,0,0-.9-.886h0a.891.891,0,0,0-.886.9l.21,30.635A.9.9,0,0,0,826.076,580.222Z" transform="translate(-531.408 -336.678)"/><path class="bv" d="M805.433,580.47a.7.7,0,0,0,.172,0,.891.891,0,0,0,.705-1.049l-5.8-29.925a.894.894,0,1,0-1.754.343l5.829,29.906A.9.9,0,0,0,805.433,580.47Z" transform="translate(-517.676 -337.188)"/><path class="bw" d="M775.944,564.755H841.9a.9.9,0,0,0,0-1.787H775.944a.9.9,0,1,0,0,1.787Z" transform="translate(-505.244 -344.616)"/><path class="bx" d="M784.418,583.807h59.006a.9.9,0,0,0,0-1.787H784.418a.9.9,0,0,0,0,1.787Z" transform="translate(-509.748 -354.589)"/><path class="by" d="M792.614,601.365h52.763a.9.9,0,0,0,0-1.787H792.614a.9.9,0,1,0,0,1.787Z" transform="translate(-513.969 -363.778)"/><path class="bz" d="M985.565,470.087s8.183,18.644-11.824,21.37L971,489.184s10.008-5.457,4.547-16.371C975.556,472.813,981.485,467.833,985.565,470.087Z" transform="translate(-607.842 -295.695)"/><path class="ca" d="M958.492,510.8h-7.268s-4.547,5.914-4.089,7.277,4.947.281,4.947.281l2.326-3.918s6.825.453,6.825-1.368S958.492,510.8,958.492,510.8Z" transform="translate(-595.334 -317.312)"/><path class="i" d="M923.083,374.07a.119.119,0,0,1-.071-.024,2.54,2.54,0,0,1-1.1-1.8,4.212,4.212,0,0,1,1.077-2.859.114.114,0,0,1,.167,0,.124.124,0,0,1,0,.172,4.206,4.206,0,0,0-1.015,2.7,2.316,2.316,0,0,0,1,1.63.119.119,0,0,1-.067.214Z" transform="translate(-582.143 -243.277)"/></g></svg>