<svg xmlns="http://www.w3.org/2000/svg" width="372.909" height="271.837" viewBox="0 0 372.909 271.837"><defs><style>.a{fill:#1975c9;}.b{fill:#0f3c5b;}.c{fill:#0b0754;}.d{fill:#3bb54b;}.e{fill:#066135;}.f{fill:#f31429;}.g{fill:#7e0300;}.h{fill:#333;}.i{fill:#fff;}.j{fill:#242424;}.k{fill:#106dc1;}.l{fill:#5a7ecc;}.m{fill:#4870c7;}.n{fill:#a2b3e0;}.o{fill:#fdbdbb;}.p{fill:#1a1a42;}.q{fill:#060632;}.r{fill:#3a3a3a;}.s{fill:#fca09e;}.t{fill:#fb948d;}.u{fill:#a83f3f;}.v{fill:#ed6a68;}.w{fill:#dde8fd;}.x{fill:#9e332e;}.y{fill:#5076c9;}.z{fill:#a3b5e1;}.aa{fill:#3662c1;}.ab{fill:#f1b2b2;}.ac{fill:#ea8888;}.ad{fill:#b3605c;}.ae{fill:#e75755;}.af{fill:#ee9d9d;}.ag{fill:#fb867e;}</style></defs><g transform="translate(0)"><path class="a" d="M1563.143,1568.761s6.475-7.552.4-12.348c0,0-4.439-2.686-8.056-2.469,0,0,5.126,8.6,3.467,9.452s-5.014-9.992-5.014-9.992-10.1-.979-13.346.583c0,0,8.633,7.065,6.814,7.485s-11.14-6.513-11.14-6.513-9.4,1.6-8.9,7.332,3.739,7.5,5.162,7.351,9.748-3.343,9.93-2.166-4.83,4.978-8.34,5.157c0,0,6.625,7.306,11.028,5.2s4.775-5.451,7.526-6.707,5.088-1.249,3.954.029-6.1,2.521-7.671,5.3-2.977,4.651,1.578,3.963,11.962-4.018,12.286-7.836Z" transform="translate(-1250.638 -1337.273)"/><path class="b" d="M1516.12,1592.1s25.523-.984,31.16,6.315a18.486,18.486,0,0,0,5.083,7.134l.6,1.631s-4.424-4.663-6.007-4.947C1546.955,1602.231,1549.431,1593.187,1516.12,1592.1Z" transform="translate(-1234.775 -1366.926)"/><path class="c" d="M1495.531,1646.521a16,16,0,0,1,5.859,11.293l-.993.089s-1.75-7.487-4.914-10.415S1495.531,1646.521,1495.531,1646.521Z" transform="translate(-1177.944 -1407.899)"/><path class="d" d="M1293.691,1493.859s-10.3-5.766-5.491-13.592c0,0,3.844-4.806,7.965-6.043,0,0-2.2,11.673,0,11.938s1.509-13.182,1.509-13.182,10.849-5.217,15.1-4.806c0,0-6.728,11.4-4.536,11.121s9.748-11.806,9.748-11.806,11.121-2.06,12.907,4.536-1.1,9.887-2.748,10.3-12.22.275-11.938,1.647,7.416,3.581,11.4,2.333c0,0-4.393,10.847-10.159,10.3s-7.552-4.121-11.124-4.4-6.179.688-4.393,1.648,7.827.315,10.711,2.767,5.217,3.961-.139,5.059-14.965.413-16.887-3.705Z" transform="translate(-958.55 -1271.869)"/><path class="e" d="M1345.417,1496.1s-28.835,9.337-32.129,19.771a21.93,21.93,0,0,1-2.748,10.028v2.058s3.023-7,4.67-7.963C1315.21,1519.992,1308.756,1510.929,1345.417,1496.1Z" transform="translate(-978.147 -1293.881)"/><path class="e" d="M1453.542,1616.8a19.014,19.014,0,0,0-1.91,14.97l1.144-.306s-1.11-9.053,1.215-13.609S1453.542,1616.8,1453.542,1616.8Z" transform="translate(-1121.149 -1384.789)"/><path class="f" d="M1526.16,1433.6s13.573-7.6,7.239-17.907c0,0-5.069-6.334-10.505-7.963,0,0,2.9,15.383,0,15.758s-1.991-17.377-1.991-17.377-14.3-6.876-19.91-6.334c0,0,8.87,15.023,5.969,14.662s-12.85-15.567-12.85-15.567-14.662-2.714-17.014,5.969,1.447,13.031,3.619,13.573,16.109.363,15.758,2.173-9.775,4.706-15.023,3.078c0,0,5.792,14.3,13.394,13.573s9.954-5.429,14.66-5.792,8.146.907,5.792,2.173-10.317.415-14.117,3.646-6.879,5.224.182,6.671,19.728.544,22.261-4.887Z" transform="translate(-1207.402 -1219.559)"/><path class="g" d="M1498.57,1436.44s38.01,12.308,42.355,26.063a28.865,28.865,0,0,0,3.619,13.213v2.714s-3.982-9.23-6.155-10.505C1538.389,1467.932,1546.9,1455.987,1498.57,1436.44Z" transform="translate(-1222.167 -1248.465)"/><path class="g" d="M1485.5,1595.555a25.055,25.055,0,0,1,2.524,19.735l-1.506-.4s1.464-11.938-1.6-17.938S1485.5,1595.555,1485.5,1595.555Z" transform="translate(-1163.124 -1368.305)"/><path class="h" d="M1427.04,1697.22a26.59,26.59,0,0,1-26.59-26.59h53.18A26.59,26.59,0,0,1,1427.04,1697.22Z" transform="translate(-1107.826 -1426.741)"/><path class="i" d="M1414,1697.022a26.617,26.617,0,0,0,29.9-26.392l-6.606,0A26.594,26.594,0,0,1,1414,1697.022Z" transform="translate(-1101.328 -1426.741)"/><path class="j" d="M1398.912,1777.23h53.916a3.281,3.281,0,0,0-3.281-3.281h-47.357a3.28,3.28,0,0,0-3.281,3.281Z" transform="translate(-1106.657 -1505.393)"/><rect class="a" width="54.661" height="0.817" transform="translate(292.019 243.893)"/><path class="e" d="M2257.25,683.513l26.691,6.922-16.62-14.294-1.359,3.83-6.73.451Z" transform="translate(-2142.702 -669.691)"/><path class="d" d="M2300.51,679.313l-21.261-14.18-22-3.6Z" transform="translate(-2159.272 -658.569)"/><path class="d" d="M2257.25,655.579l16.62,14.294-11.776-20.743Z" transform="translate(-2132.632 -649.13)"/><path class="g" d="M1564.62,1213.173l-27.5,2.01,18.919-11.073.647,4.011,6.54,1.654Z" transform="translate(-1251.446 -1071.605)"/><path class="f" d="M1460.66,1218.206l23.465-10.126,22.29.411Z" transform="translate(-1174.987 -1074.628)"/><path class="f" d="M1591.979,1181.105l-18.919,11.073,15.314-18.289Z" transform="translate(-1287.387 -1048.601)"/><path class="k" d="M2620.7,1203.6a271.577,271.577,0,0,0-3.137-33.311c-2.249-13.007-4.276-20.49-4.3-20.571-.3-1.144-4.577-5.771-14.086-5.627s-8.615,6.208-8.615,6.208h0a1.982,1.982,0,0,0,.069.54c.091.313,8.834,31.993,8.45,72.887,0,.575-.069,1.569-.029,2.228,0,0,22.054.571,22.059,0C2621.874,1222.377,2621.5,1212.479,2620.7,1203.6Z" transform="translate(-2559.867 -1025.913)"/><path class="l" d="M2610.976,1223.544c0,.571-.308,1.027-.673,1.027h0c-.368,0-.659-.466-.664-1.027h-18.9c0,.571-.308,1.027-.676,1.027h0c-.375,0-.671-.478-.666-1.058a285.49,285.49,0,0,0-1.569-32.289c-2.512-24.062-7.163-40.144-7.222-40.366a1.945,1.945,0,0,1-.069-.539s-.9-6.069,8.614-6.208,13.8,4.484,14.087,5.63c.017.06,1.163,4.3,2.688,11.914.5,2.524,1.048,5.42,1.609,8.655a275.892,275.892,0,0,1,3.13,33.3C2611.463,1212.494,2611.745,1219.97,2610.976,1223.544Z" transform="translate(-2547.372 -1025.929)"/><path class="m" d="M2603.661,1279.475c0,.571-.308,1.027-.673,1.027h0c-.368,0-.659-.466-.664-1.027h-18.9c0,.571-.308,1.027-.676,1.027h0c-.375,0-.671-.478-.666-1.058a285.666,285.666,0,0,0-1.569-32.289c3.125-15.28,15.2-26.948,18.107-29.574.5,2.524,1.048,5.42,1.609,8.655a278.352,278.352,0,0,1,3.12,33.309C2604.148,1268.425,2604.43,1275.9,2603.661,1279.475Z" transform="translate(-2540.057 -1081.859)"/><path class="n" d="M2594.167,1230.991h.055l.031-.033a.1.1,0,0,0,.031-.084h0v-.05c.026-.764,1.595-.917,4.121-.917.561,0,1.17,0,1.812.014.736,0,1.495.017,2.3.017a51.062,51.062,0,0,0,8.729-.626c2.027-.356.659-15.978-.783-30.594-.239-2.485-.437-4.448-.525-5.6-.955-12.513-6.365-34.51-6.418-34.682-.239-.915-3.49-4.374-10.584-4.264-2.66.041-4.551.7-5.618,1.958a3.736,3.736,0,0,0-.891,2.786,1.4,1.4,0,0,0,.055.415c.029.12,4.921,28.672,5.718,35.52,1.34,11.477,1.86,35.62,1.867,35.973v.155Zm4.228-1.3c-2.215,0-3.629.112-4.133.635-.079-3.515-.6-24.723-1.855-35.5-.819-7-5.7-35.467-5.73-35.558a1.353,1.353,0,0,1-.048-.37,3.609,3.609,0,0,1,.843-2.626c1.027-1.194,2.865-1.836,5.456-1.877h.318c6.742,0,9.827,3.237,10.054,4.107.052.2,5.491,22.369,6.408,34.639.088,1.158.282,3.123.528,5.608.535,5.415,1.265,12.831,1.614,19.077.511,9.14-.074,11.181-.655,11.281a50.809,50.809,0,0,1-8.69.623c-.8,0-1.562,0-2.3-.017C2599.565,1229.7,2598.958,1229.69,2598.395,1229.69Z" transform="translate(-2549.62 -1033.588)"/><path class="l" d="M2368.343,1461.835h74.1s-1.726-6.984-44.647-5.943C2367.433,1456.628,2368.343,1461.835,2368.343,1461.835Z" transform="translate(-2327.73 -1263.193)"/><path class="j" d="M2651.387,1557.5c8.6-43.5,6.382-70.194,6.37-70.524-.021-.668,1.213-1.277,1.877-1.3s3.639-.2,3.982.375c.449.752,2.18,33.636-10.627,71.448Z" transform="translate(-2616.813 -1285.913)"/><path class="h" d="M2426.744,1557.5c-8.6-43.5-6.384-70.194-6.372-70.524.021-.668-1.213-1.277-1.877-1.3s-3.638-.2-3.982.375c-.449.752-2.18,33.636,10.627,71.448Z" transform="translate(-2322.974 -1285.913)"/><path class="h" d="M2369.313,1557.5c-8.595-43.5-6.384-70.194-6.373-70.524.022-.668-1.212-1.277-1.876-1.3s-3.638-.2-3.98.375c-.451.752-2.182,33.636,10.625,71.448Z" transform="translate(-2251.831 -1285.913)"/><path class="h" d="M2593.542,1557.5c8.6-43.5,6.382-70.194,6.373-70.524-.021-.668,1.213-1.277,1.876-1.3s3.636-.2,3.98.375c.451.752,2.18,33.636-10.625,71.448Z" transform="translate(-2545.159 -1285.913)"/><rect class="k" width="77.139" height="4.033" rx="2.016" transform="translate(39.139 196.839)"/><path class="o" d="M2274.068,1193.146l24.632-5.336,1.452,3.536s-27.18,16.173-29.727,15.381S2274.068,1193.146,2274.068,1193.146Z" transform="translate(-2161.913 -1059.197)"/><path class="o" d="M2390.763,1614.125a2.194,2.194,0,0,0-.389,2.342c.566,1.561,2.431,3.3,4.6,5.045.277.222.523.425.738.614l.165.148.129.117c2.02,1.862,1.258,2.287,4.889,6.067,4.138,4.3,6.988,4.386,7.8,3.992.686-.334-.716-2.626-2.251-5.186-.076-.122-.148-.239-.227-.373-.205-.341-.408-.69-.614-1.031-1.81-3.09-1.344-4.536-.917-9.137.351-3.736,5.814-20.877,5.814-20.877l-7.931-1.366s-2.388,13.647-5.014,15.758c-1.406,1.12-2.982,1.134-4.336,1.965-.1.057-.188.117-.282.179A10.349,10.349,0,0,0,2390.763,1614.125Z" transform="translate(-2301.003 -1368.772)"/><path class="p" d="M2397.575,1670.6a2.194,2.194,0,0,0-.389,2.342c.692,1.559,2.512,3.293,4.605,5.028.275.227.516.434.731.63l.165.148.129.117c2.02,1.862,1.258,2.287,4.89,6.067,4.138,4.3,6.988,4.386,7.8,3.992.686-.334-.716-2.626-2.251-5.186a17.6,17.6,0,0,1-7.38-5.436c-2.492-3.18-4.154-7.265-5.852-9.634-.095.057-.188.117-.281.179a10.365,10.365,0,0,0-2.166,1.752Z" transform="translate(-2307.815 -1425.249)"/><path class="o" d="M2111.629,1601.495c.489,2.45,3.98,2.041,7.878,1.086s2.973.181,8.521-.432,7.232-2.686,7.4-3.51c.15-.733-2.59-.991-5.532-1.33-.37-.041-.743-.086-1.113-.134-3.321-.416-5.754-2.56-8.77-4.319-2.865-1.671-7.122-8.457-7.122-8.457l-7.61.6s3.992,6.067,5.537,8.7a9.181,9.181,0,0,1,.747,5.188A9.8,9.8,0,0,0,2111.629,1601.495Z" transform="translate(-1957.916 -1361.099)"/><path class="p" d="M2113.284,1643.752c3.9-.955,2.973.181,8.521-.432s7.232-2.686,7.4-3.51c.15-.733-2.591-.991-5.532-1.33l-.029.057a15.655,15.655,0,0,1-7.946,2.471c-3.765.091-7.755-.989-10.355-.955a9.82,9.82,0,0,0,.06,2.6C2105.9,1645.115,2109.394,1644.707,2113.284,1643.752Z" transform="translate(-1951.692 -1402.267)"/><path class="o" d="M2222.4,1171.007s1.814-4.441,3.808-4.622,8.342-1.179,8.793-.272a6.281,6.281,0,0,1-1.358,5.348c-1.359,1.177-9.789,3.082-9.789,3.082Z" transform="translate(-2085.614 -1042.394)"/><path class="q" d="M2353.235,1413.286l-16.4,44.143a15.02,15.02,0,0,1-4.937-.454,21.309,21.309,0,0,1-4.775-2.323s4.059-42.384,11.529-51.2S2353.235,1413.286,2353.235,1413.286Z" transform="translate(-2228.678 -1221.553)"/><path class="p" d="M2190.288,1335.873s47.13-15.937,57.643-12.544S2290,1389.5,2290,1389.5a6.02,6.02,0,0,1-2.655,1.671c-1.81.678-6.186.635-6.186.635s-28.484-24.415-31.874-31.535-4.747-13.9-8.137-13.225-43.742,16.615-52.9,7.12-6.762-21.83-6.762-21.83Z" transform="translate(-2130.608 -1162)"/><path class="r" d="M2500.571,939.026c.752-1.554,1.595-4.314,2.008-9.235-.065.478-.912,6.685-3.3,10.207-9.789,6.446-28.588,27.934-28.218,31.993,0,0-6.616-11.221-6.731-11.291,0,0-12.208-15.519,2.261-24.415,7.354-4.52,7.315-10.319,7.008-15.357s2.005-26.741,16.737-21.053c0,0,2.363-1.051,3.421-.893a2.9,2.9,0,0,0-1.3.621,11.321,11.321,0,0,1,6.186,1.194C2504.04,903.857,2508.873,931.386,2500.571,939.026Z" transform="translate(-2412.091 -839.291)"/><path class="o" d="M2499.936,1026c.05.024-4.732,2.507-8.328,1.521-3.385-.922-5.594-5.307-5.548-5.317,1.432-.287,1.845-2.254,1.817-10.715l.647.127,10.89,2.149s-.239,3.426-.253,6.656C2499.15,1023.141,2499.315,1025.713,2499.936,1026Z" transform="translate(-2413.327 -924.975)"/><path class="s" d="M2499.139,1014.178s-.239,3.426-.253,6.657c-6.1-.172-9.312-5.73-10.637-8.815Z" transform="translate(-2413.053 -925.378)"/><path class="o" d="M2474.2,956.335s-14.421.239-14.43-8.743-1.876-15,7.33-15.519,11,2.894,11.73,5.89S2477.951,956.041,2474.2,956.335Z" transform="translate(-2386.076 -864.478)"/><path class="r" d="M2500.692,925.443s-3.947,10.539-10.006,12.1-8.686-.064-8.686-.064a17.158,17.158,0,0,0,5.611-10.135C2487.62,927.338,2497.724,920.429,2500.692,925.443Z" transform="translate(-2413.114 -858.082)"/><path class="r" d="M2455.475,929.381s2.946,2.352,3.665,4.639,1.043,7,2.417,6.836c0,0,2.975-7.163-.37-11.222C2457.635,925.358,2455.475,929.381,2455.475,929.381Z" transform="translate(-2368.864 -861.164)"/><path class="a" d="M2373.264,1098.938c-1.433-5.969,3.417-17.536,8.466-27.115,4.582-8.684,9.338-15.729,9.765-15.474,12.086,7.162,13.177,1.208,13.177,1.208h0s10.983,1.456,14.087,6.807c3.854,6.637,8.02,25.189,12.157,28.7-.635,1.943-.363,2.98.311,5.389.146.518.3,1.008.478,1.473a28.4,28.4,0,0,0,2.077,4.267c-2.1,1.277-6.165,3.708-9.159,1.96-4.56-2.669-8.118-10.8-10.123-14.034l-.021-.036c-4.355,24.644,1.566,30.257-1.433,32.858-3.163,2.743-7.686-1.308-17.632,3-6.525,2.829-15.579,6.924-21.672,7.64-3.2.377-5.582-.179-6.361-2.337C2365.125,1126.968,2375.976,1110.307,2373.264,1098.938Z" transform="translate(-2318.763 -959.118)"/><path class="f" d="M2470.472,1008.729s.27,1.141,3.1.955c0,0,2.388-.148,2.309-1.4A7.744,7.744,0,0,0,2470.472,1008.729Z" transform="translate(-2385.556 -922.317)"/><path class="k" d="M2525.685,1218.013c.778,2.149,3.164,2.715,6.36,2.337,4.216-1.836,22.443-8.9,22.238-13.681-.3-7.081-3.5-7.308-1.244-16.049,1.814-7.02-15.022-20.072-17.708-22.921-5.05,9.581-5.191,10.028-3.768,16C2534.275,1195.078,2523.424,1211.738,2525.685,1218.013Z" transform="translate(-2477.062 -1043.889)"/><path class="k" d="M2545.63,1107.709a26.888,26.888,0,0,1,8.815-8.144c-.511-1.313,13.593-18.6,13.593-21.283s3.762-21.922,3.762-21.922-11.751.716-15.82,6.4C2550.893,1069.857,2540.328,1097.166,2545.63,1107.709Z" transform="translate(-2499.069 -959.132)"/><path class="t" d="M2367.05,1206.2c2,3.235,5.563,11.365,10.123,14.034,2.994,1.748,7.055-.683,9.159-1.96a28.411,28.411,0,0,1-2.077-4.267c-1.671.384-3.727.874-5.05,1.273C2376.636,1216.058,2367.05,1206.2,2367.05,1206.2Z" transform="translate(-2271.309 -1073.196)"/><path class="o" d="M2459.906,1237.32l23.481,6.131a27.686,27.686,0,0,0,4.634-2.91.289.289,0,0,1,.449.052,1.271,1.271,0,0,1-.2,1.671,12.674,12.674,0,0,1,4.247-.408c1.758.477,7.777,4.472,6.924,5.556s-6.148-.649-8.6-.322-4.326,1.533-6.083,1.272a20.4,20.4,0,0,1-3.594-.955s-28.576-.2-30.083-1.941S2459.906,1237.32,2459.906,1237.32Z" transform="translate(-2404.529 -1096.886)"/><path class="u" d="M2410.185,1306.923h-34.4a2.741,2.741,0,0,1,2.743-2.743h31.661Z" transform="translate(-2297.247 -1147.784)"/><path class="v" d="M2166.513,1158.73h53.192l-12.756,37.468H2153.41Z" transform="translate(-2053.675 -1037.06)"/><path class="u" d="M2216.425,1158.72l-12.757,37.47H2150.13l13.105-37.47Z" transform="translate(-2049.611 -1037.052)"/><path class="w" d="M2275.205,1227.48a3.457,3.457,0,0,1-3.19,2.593,2,2,0,0,1-1.994-2.593,3.455,3.455,0,0,1,3.189-2.591A2,2,0,0,1,2275.205,1227.48Z" transform="translate(-2137.069 -1087.424)"/><path class="x" d="M2187.793,1158.72l-12.757,37.47H2150.13l29.832-37.47Z" transform="translate(-2020.98 -1037.052)"/><path class="y" d="M1854.114,862.178l2.211,23.563,2.555,27.168a10.312,10.312,0,0,0,20.533-1.929l-1.473-15.662-3.3-35.068c-.53-5.642-5.826-12.415-11.46-11.883C1863.166,848.364,1853.826,850.331,1854.114,862.178Z" transform="translate(-1641.968 -800.775)"/><path class="z" d="M1899.375,908.769s-3.581-4.976-15.235-6.169C1884.128,902.6,1888.629,909.414,1899.375,908.769Z" transform="translate(-1669.055 -842.083)"/><path class="z" d="M1893,944.088s-4.214-5.854-17.926-7.258C1875.07,936.83,1880.359,944.845,1893,944.088Z" transform="translate(-1660.51 -868.14)"/><path class="z" d="M1889.5,981.218s-4.214-5.854-17.923-7.258C1871.58,973.969,1876.859,981.975,1889.5,981.218Z" transform="translate(-1656.184 -896.405)"/><path class="z" d="M1905.064,878.756s-2.512-3.488-10.684-4.326C1894.38,874.43,1897.515,879.21,1905.064,878.756Z" transform="translate(-1677.189 -820.638)"/><path class="aa" d="M1854.108,1005l2.555,27.168a10.312,10.312,0,0,0,20.533-1.929l-1.473-15.662a7.226,7.226,0,0,0-5.136-2.051C1863.622,1012.8,1856.884,1007.457,1854.108,1005Z" transform="translate(-1639.751 -920.034)"/><path class="ab" d="M1966.9,902.129v.16l.05-.155c.277-.852,1.626-5.057,2.865-9.736,1.7-6.477,3.163-13.867,1.234-14.55-3.655-1.294-4.328,9.054-4.338,16.689C1966.7,898.3,1966.86,901.4,1966.9,902.129Z" transform="translate(-1761.356 -823.156)"/><path class="ab" d="M1995.832,860.179c1.32,2.93,2.466,5.394,3.123,6.871.286.642.477,1.1.556,1.323-.064-.365-.239-1.344-.478-2.736h0c-.37-2.087-.907-5.1-1.495-8.373-1.433-7.953-3.166-17.429-3.582-18.788-.716-2.387-4.016-7.478-6.236-3.051C1986.284,838.29,1991.852,851.347,1995.832,860.179Z" transform="translate(-1793.866 -789.615)"/><path class="ab" d="M1998.845,916c1.366,1.432,2.514,2.607,3.154,3.254l.549.552s-.349-.747-.955-1.936c-.561-1.125-1.344-2.645-2.256-4.3-2.994-5.456-7.4-12.446-10.135-12.043C1986.089,901.976,1993.894,910.774,1998.845,916Z" transform="translate(-1797.143 -841.253)"/><path class="ac" d="M1975.85,948.856h.06c.277-.852,1.626-5.057,2.865-9.736a4.456,4.456,0,0,1-3.1,2.149C1975.655,945.027,1975.812,948.128,1975.85,948.856Z" transform="translate(-1770.308 -869.883)"/><path class="ac" d="M1989.509,935.385c1.32,2.93,2.466,5.394,3.123,6.871a11.91,11.91,0,0,0,.074-1.413h0c-.37-2.087-.907-5.1-1.495-8.373A4.06,4.06,0,0,1,1989.509,935.385Z" transform="translate(-1787.543 -864.821)"/><path class="ac" d="M1990.79,954.448c1.366,1.433,2.514,2.607,3.154,3.254a8.594,8.594,0,0,0-.4-1.385c-.561-1.125-1.344-2.646-2.256-4.3A6.079,6.079,0,0,1,1990.79,954.448Z" transform="translate(-1789.087 -879.703)"/><path class="ab" d="M1987.379,979c.019.1.026.155.026.155A.445.445,0,0,0,1987.379,979Z" transform="translate(-1781.734 -900.242)"/><path class="t" d="M1949.436,980.3c2.29,6.487,5.143,13.561,5.143,13.561l6.447-1.932s-.755-4.8-1.863-10.149c-1.292-6.234-3.061-13.208-4.677-14.161a5.21,5.21,0,0,0-2.285-.716,5.621,5.621,0,0,0-1.153.033l-.267.041a6.652,6.652,0,0,0-.659.155c-.083.024-.167.053-.239.081a5.985,5.985,0,0,0-.824.346,4.966,4.966,0,0,0-2.366,2.342C1946.315,970.81,1947.7,975.4,1949.436,980.3Z" transform="translate(-1745.624 -891.02)"/><path class="ad" d="M2022.72,963.982a38.51,38.51,0,0,1-.881,16.632,3.328,3.328,0,0,1-3.047,2.466c-.974-.146-2.641-2.189-3.414-4.6a8.5,8.5,0,0,1-.406-2.046c-.353-5.379-1.492-11.959-3.56-15.533a38.013,38.013,0,0,0-9.44-11.46h0c-.425-.329-10.159-9.789-10.159-9.789-.919-1.3.547-2.388.547-2.388a30.011,30.011,0,0,0,3.791,3.316c2.889,2.263,8.722.929,8.722.929a5.332,5.332,0,0,1,4.868,1,39.422,39.422,0,0,1,7.454,8.118A34.279,34.279,0,0,1,2022.72,963.982Z" transform="translate(-1818.57 -868.467)"/><path class="x" d="M2036.074,1000.343c-.353-5.379-1.492-11.959-3.56-15.533a38.014,38.014,0,0,0-9.441-11.46h0c-.076-.072-2.972-2.925.926-4.574,3.82-1.614,15.906,16.211,12.48,33.629A8.493,8.493,0,0,1,2036.074,1000.343Z" transform="translate(-1839.672 -892.38)"/><path class="ab" d="M1813.493,999.556a11.675,11.675,0,0,0,1.671,2.046,15.8,15.8,0,0,0,11.42,4.221,14.866,14.866,0,0,0,3.133-4.572h0c.716-1.776,1.227-4.391,0-6.332a4.89,4.89,0,0,0-2.836-2.149c-1.752-.532-3.541-.258-4.324-1.036a7.762,7.762,0,0,0-3.075-1.814c-.2-.065-.4-.119-.6-.165h0c-.084-.022-.167-.038-.253-.055h0a5.234,5.234,0,0,0-5.224,1.65,5.951,5.951,0,0,0-.86,1.4A7.272,7.272,0,0,0,1813.493,999.556Z" transform="translate(-1582.929 -908.29)"/><path class="ae" d="M1817.895,1010.533s1.657,1.3,1.151,2.743-1.819.773-2.23-.222S1816.8,1010.049,1817.895,1010.533Z" transform="translate(-1572.71 -924.19)"/><path class="af" d="M1817.367,997a5.983,5.983,0,0,0-.859,1.409c-.884,1.986-2.1,7.261-.638,9.55l1.963,1.793c2.486,2.452,7.693,1.771,12.719,1.724a14.866,14.866,0,0,0,3.133-4.572h0a12.247,12.247,0,0,1-12.074-2.677A12.844,12.844,0,0,1,1817.367,997Z" transform="translate(-1586.902 -913.944)"/><path class="ab" d="M1815.34,979.877c1.027-.611,2.065.239,3.271.716a12.459,12.459,0,0,0,3.526.463,16.8,16.8,0,0,0-2.519-2.739C1818.055,976.956,1815.34,979.877,1815.34,979.877Z" transform="translate(-1575.391 -899.447)"/><path class="ac" d="M1815.34,979.88a4.414,4.414,0,0,1,3.62-.891,26.088,26.088,0,0,1,3.178,2.072,16.812,16.812,0,0,0-2.519-2.739C1818.054,976.96,1815.34,979.88,1815.34,979.88Z" transform="translate(-1575.391 -899.451)"/><path class="af" d="M1830.145,992.824a7.765,7.765,0,0,0-3.075-1.815c2.051.769,3.18,3.367,3.959,3.066a13.674,13.674,0,0,1,3.441-.215C1832.717,993.328,1830.929,993.6,1830.145,992.824Z" transform="translate(-1590.523 -909.384)"/><path class="af" d="M1860.57,990.09a2.568,2.568,0,0,0,.253.055C1860.739,990.124,1860.656,990.107,1860.57,990.09Z" transform="translate(-1624.875 -908.684)"/><path class="ac" d="M1842.447,979.407h0a6.5,6.5,0,0,0-.11-4.51,29.076,29.076,0,0,0-1.272-2.992.167.167,0,0,0-.311.021l-.124.38a1.378,1.378,0,0,0,.127,1.136c.635,1.051,1.91,3.5,1.337,5.527C1842.029,979.2,1842.33,979.667,1842.447,979.407Z" transform="translate(-1602.087 -894.768)"/><path class="ag" d="M1946.63,1023.06c2.29,6.487,5.143,13.561,5.143,13.561l6.446-1.931s-.755-4.8-1.862-10.15h0a4.983,4.983,0,0,1-4.41,2.865C1950.175,1027.374,1948.1,1025.054,1946.63,1023.06Z" transform="translate(-1742.819 -933.782)"/><path class="a" d="M1866.143,1091.256l7.225-51.457a68.809,68.809,0,0,0,37.936,0l6.208,63.7h-38.117l-.017-.163h-2.722a10.61,10.61,0,0,1-10.512-12.083Z" transform="translate(-1682.869 -946.525)"/><path class="k" d="M1801.327,1039.8l-7.222,51.456a10.608,10.608,0,0,0,10.505,12.083h10.883a9.233,9.233,0,0,0,9.178-10.236l-5.2-53.3s-2.421,1.752-8.621,1.752C1804.719,1041.552,1801.327,1039.8,1801.327,1039.8Z" transform="translate(-1572.883 -946.525)"/><path class="w" d="M1937.77,1079.038a17.259,17.259,0,0,0,2.738-.239c7.7-1.244,10.075-14.831,10.173-15.409l-1.528-.258h0a35.2,35.2,0,0,1-2.013,6.8c-1.273,3.044-3.5,6.785-6.881,7.332-3.846.621-6.967-.151-9.025-2.228-2.438-2.462-3.3-6.6-2.438-11.649l-1.528-.263c-.955,5.558.064,10.176,2.865,13A10.372,10.372,0,0,0,1937.77,1079.038Z" transform="translate(-1730.575 -964.285)"/><path class="w" d="M1927.612,1059.506a1.356,1.356,0,1,0-1.356,1.356A1.356,1.356,0,0,0,1927.612,1059.506Z" transform="translate(-1707.024 -960.494)"/><path class="w" d="M2019.082,1059.506a1.356,1.356,0,1,0-1.356,1.356A1.356,1.356,0,0,0,2019.082,1059.506Z" transform="translate(-1820.332 -960.494)"/><path class="h" d="M2712.733,1439.5a1.375,1.375,0,0,0,1.364-1.117l6.685-37.869,9.6-54.46,2.686-15.23-6.843-.2-1.194,8.834-8.338,62.126-4.935,36.833a.967.967,0,0,0,.977,1.079Z" transform="translate(-2700.341 -1167.918)"/><path class="j" d="M2711.72,1339.471a9.825,9.825,0,0,1,5.345,6.585l2.686-15.23-6.843-.2Z" transform="translate(-2687.021 -1167.918)"/><path class="h" d="M1800.168,1439.5a1.375,1.375,0,0,1-1.363-1.117l-6.685-37.869-9.61-54.46-2.688-15.23,6.845-.2,1.194,8.834,8.337,62.126,4.942,36.826a.955.955,0,0,1-.972,1.086Z" transform="translate(-1545.923 -1167.918)"/><path class="j" d="M1843.514,1339.471a9.817,9.817,0,0,0-5.346,6.585l-2.688-15.23,6.845-.2Z" transform="translate(-1601.576 -1167.918)"/><path class="h" d="M1704.209,1318.428h262.767a6,6,0,0,0,5.969-5.969h0a6,6,0,0,0-5.969-5.969H1704.209a6,6,0,0,0-5.969,5.969h0A6,6,0,0,0,1704.209,1318.428Z" transform="translate(-1698.24 -1149.541)"/></g></svg>