<svg xmlns="http://www.w3.org/2000/svg" version="1.1" xmlns:xlink="http://www.w3.org/1999/xlink" width="24" height="24" x="0" y="0" viewBox="0 0 24 24" xml:space="preserve" class=""><g><path d="M19 1H5a1 1 0 0 0-.65.25A4 4 0 0 1 7 4.6 1.75 1.75 0 0 1 7 5v17a1 1 0 0 0 .58.91 1 1 0 0 0 1.07-.15l2.85-2.44 2.85 2.44a1 1 0 0 0 1.3 0l2.85-2.44 2.85 2.44A1 1 0 0 0 22 23a1.06 1.06 0 0 0 .42-.09A1 1 0 0 0 23 22V5a4 4 0 0 0-4-4zm-1 14h-6a1 1 0 0 1 0-2h6a1 1 0 0 1 0 2zm0-4h-6a1 1 0 0 1 0-2h6a1 1 0 0 1 0 2zm0-4h-6a1 1 0 0 1 0-2h6a1 1 0 0 1 0 2zM5 5v8H2a1 1 0 0 1-1-1V4.6A2 2 0 0 1 5 5z" fill="#6964e2" opacity="1" data-original="#6964e2" class=""></path></g></svg>