<svg xmlns="http://www.w3.org/2000/svg" version="1.1" xmlns:xlink="http://www.w3.org/1999/xlink" width="20" height="20" x="0" y="0" viewBox="0 0 512 512" xml:space="preserve" class="hovered-paths"><g><g data-name="ESSENTIAL UI"><path fill="#3351c9" d="M501.05 103.13c-9.63-43.48-51.78-83.31-95.38-91.77C379.11 6.05 305-.51 256 0c-49-.54-123.11 6-149.67 11.33-43.6 8.49-85.75 48.32-95.33 91.8C5.46 129.53.08 165.45 0 214.48c.08 49 5.46 84.93 11 111.34 9.63 43.48 51.78 83.31 95.38 91.77 14.34 2.86 42.54 6.1 73.17 8.38q5.2 8.17 11.29 17.4c16.26 24.62 28.69 41.77 38.11 53.72 15.68 19.88 38.51 19.88 54.19 0 9.42-11.95 21.85-29.1 38.11-53.72q6.09-9.24 11.29-17.4c30.63-2.28 58.84-5.52 73.18-8.38 43.6-8.46 85.75-48.29 95.38-91.77 5.48-26.41 10.87-62.32 10.95-111.34-.13-49.04-5.52-84.94-11-111.35z" opacity="1" data-original="#dd4247" class="hovered-path"></path><path fill="#19c9bb" d="M256 0c-49-.54-123.11 6-149.67 11.33-43.6 8.49-85.75 48.32-95.33 91.8C5.46 129.53.08 165.45 0 214.47c.08 49 5.46 84.94 11 111.35 5.67 25.63 22.66 50 44.58 67.41a278.86 278.86 0 0 0 64.78 7.59c153.63 0 278.17-124.54 278.17-278.16a277.16 277.16 0 0 0-25.3-115.93C339.07 2.9 291.1-.36 256 0z" opacity="0.30980392156862746" data-original="#e55353" class=""></path><g fill="#fff"><path d="M284.28 359.83a16.51 16.51 0 0 1-12.69 12.69 101.87 101.87 0 0 1-31.18 0 16.49 16.49 0 0 1-12.69-12.69 102.65 102.65 0 0 1 0-31.17A16.48 16.48 0 0 1 240.41 316a101.87 101.87 0 0 1 31.18 0 16.48 16.48 0 0 1 12.69 12.69 102.65 102.65 0 0 1 0 31.17zM227.64 95.14A28.36 28.36 0 0 1 256 66.78a28.36 28.36 0 0 1 28.36 28.36v159.07A28.36 28.36 0 0 1 256 282.57a28.36 28.36 0 0 1-28.36-28.36z" fill="#ffffff" opacity="1" data-original="#ffffff" class=""></path></g></g></g></svg>
