<svg xmlns="http://www.w3.org/2000/svg" xmlns:xlink="http://www.w3.org/1999/xlink" width="48" height="48" viewBox="0 0 48 48">
  <defs>
    <clipPath id="clip-Return_Exchange">
      <rect width="48" height="48"/>
    </clipPath>
  </defs>
  <g id="Return_Exchange" data-name="Return &amp; Exchange" clip-path="url(#clip-Return_Exchange)">
    <path id="assignment_return_FILL0_wght500_GRAD0_opsz24" d="M130.279-903.509h6.153a2.055,2.055,0,0,0,1.519-.625,2.085,2.085,0,0,0,.619-1.525,2.065,2.065,0,0,0-.619-1.519,2.066,2.066,0,0,0-1.519-.619h-6.153l1.6-1.613a2.048,2.048,0,0,0,.594-1.475,2.046,2.046,0,0,0-.632-1.513,2.035,2.035,0,0,0-1.5-.6,2.035,2.035,0,0,0-1.5.6l-5.131,5.131a2.214,2.214,0,0,0-.686,1.61,2.2,2.2,0,0,0,.686,1.606l5.131,5.131a2.08,2.08,0,0,0,1.481.619,2.009,2.009,0,0,0,1.519-.619,2.014,2.014,0,0,0,.594-1.5,2.056,2.056,0,0,0-.606-1.5ZM116.432-887.2a4.395,4.395,0,0,1-3.223-1.34,4.394,4.394,0,0,1-1.341-3.223v-27.795a4.394,4.394,0,0,1,1.341-3.223,4.394,4.394,0,0,1,3.223-1.341h8.029a6.321,6.321,0,0,1,2.325-2.921,6.119,6.119,0,0,1,3.543-1.091,6.119,6.119,0,0,1,3.543,1.091,6.321,6.321,0,0,1,2.325,2.921h8.029a4.394,4.394,0,0,1,3.223,1.341,4.394,4.394,0,0,1,1.341,3.223v27.795a4.394,4.394,0,0,1-1.341,3.223,4.395,4.395,0,0,1-3.223,1.34Zm0-4.563h27.795v-27.795H116.432Zm13.9-29.347a1.555,1.555,0,0,0,1.147-.453,1.555,1.555,0,0,0,.453-1.147,1.555,1.555,0,0,0-.453-1.147,1.555,1.555,0,0,0-1.147-.453,1.554,1.554,0,0,0-1.147.453,1.555,1.555,0,0,0-.453,1.147,1.555,1.555,0,0,0,.453,1.147A1.555,1.555,0,0,0,130.33-921.108Zm-13.9,29.347v0Z" transform="translate(-105.869 932.131)" fill="#1967d2"/>
  </g>
</svg>
