<svg width="40" height="40" viewBox="0 0 84 90" fill="none" xmlns="http://www.w3.org/2000/svg" xmlns:xlink="http://www.w3.org/1999/xlink">
  <path d="M18.073,54.429C18.073,47.524 18.073,40.592 18.073,33.687C18.073,32.499 18.46,31.809 19.51,31.229C26.002,27.527 32.495,23.799 38.96,20.015C39.816,19.518 40.424,19.877 41.087,20.263C45.894,23.053 50.729,25.843 55.536,28.688C56.669,29.378 57.525,29.35 58.63,28.632C60.426,27.445 62.332,26.367 64.211,25.318C65.123,24.793 65.068,24.517 64.211,24.02C55.978,19.324 47.745,14.574 39.512,9.851C37.109,8.47 34.705,7.061 32.301,5.652C31.942,5.431 31.334,5.321 31.445,4.713C31.5,4.244 31.942,4.078 32.329,3.94C34.595,3.056 36.556,1.592 38.656,0.377C39.457,-0.093 40.092,-0.148 40.921,0.349C53.906,7.89 66.919,15.375 79.931,22.887C80.373,23.136 80.843,23.384 81.285,23.633C81.837,23.964 82.749,24.103 82.722,24.848C82.722,25.566 81.81,25.732 81.23,26.036C70.731,31.864 60.399,38.051 49.983,44.072C48.463,44.956 46.944,45.812 45.397,46.641C44.623,47.055 44.292,47.607 44.319,48.491C44.375,50.701 44.402,52.938 44.319,55.147C44.264,56.473 44.679,56.556 45.701,55.948C50.48,53.159 55.26,50.424 60.039,47.635C65.703,44.348 71.367,41.061 77.058,37.774C77.528,37.498 78.025,36.946 78.577,37.305C79.13,37.664 78.771,38.355 78.771,38.879C78.771,47.718 78.688,56.528 78.771,65.367C78.771,66.665 78.329,67.356 77.279,67.963C65.289,74.868 53.326,81.773 41.336,88.678C39.788,89.562 36.335,88.209 35.644,86.469C34.622,83.9 35.451,81.663 37.827,80.282C47.939,74.454 58.023,68.598 68.134,62.798C69.35,62.108 69.902,61.252 69.82,59.815C69.709,57.771 69.792,55.7 69.82,53.628C69.82,52.579 69.543,52.496 68.687,52.993C58.244,59.07 47.8,65.118 37.357,71.167C35.562,72.217 35.202,72.051 35.258,70.007C35.423,61.086 35.064,52.165 35.423,43.243C35.451,42.221 35.838,41.669 36.694,41.172C40.037,39.321 43.325,37.388 46.64,35.482C47.027,35.261 47.635,35.178 47.662,34.653C47.662,34.101 47.054,34.018 46.668,33.797C44.9,32.748 43.076,31.753 41.336,30.676C40.286,30.041 39.429,30.013 38.352,30.676C35.119,32.692 31.804,34.626 28.489,36.504C27.55,37.029 27.19,37.692 27.19,38.714C27.19,52.496 27.19,66.278 27.19,80.061C27.19,80.613 27.467,81.276 26.831,81.607C26.306,81.884 25.864,81.414 25.422,81.166C23.599,80.116 21.803,78.984 19.924,78.017C18.571,77.299 18.046,76.36 18.073,74.813C18.156,67.991 18.101,61.196 18.101,54.374L18.073,54.429Z" fill="#ffffff"/>
  <path d="M1,44.514C1,37.554 1,30.593 1,23.605C1,22.501 1.276,21.81 2.298,21.23C8.736,17.612 15.118,13.938 21.527,10.265C22.356,9.795 22.991,9.74 23.82,10.237C25.837,11.48 27.909,12.64 29.954,13.828C31.445,14.712 31.445,14.988 29.954,15.872C23.958,19.324 17.991,22.804 11.968,26.202C10.476,27.03 9.868,27.997 9.896,29.737C9.979,43.519 9.951,57.302 10.007,71.084C10.007,72.189 9.565,72.106 8.929,71.692C6.747,70.311 4.481,69.096 2.16,67.936C1.055,67.383 1.055,66.472 1.055,65.45C1.055,58.49 1.055,51.529 1.055,44.541L1,44.514Z" fill="#ffffff"/>
</svg>
