<svg xmlns="http://www.w3.org/2000/svg" xmlns:xlink="http://www.w3.org/1999/xlink" width="48" height="48" viewBox="0 0 48 48">
  <defs>
    <clipPath id="clip-Unified_tracking_page">
      <rect width="48" height="48"/>
    </clipPath>
  </defs>
  <g id="Unified_tracking_page" data-name="Unified tracking page" clip-path="url(#clip-Unified_tracking_page)">
    <path id="pages_FILL0_wght500_GRAD0_opsz24" d="M116.82-808.075a4.772,4.772,0,0,1-3.5-1.448,4.772,4.772,0,0,1-1.448-3.5V-843.18a4.772,4.772,0,0,1,1.448-3.5,4.772,4.772,0,0,1,3.5-1.448h30.154a4.772,4.772,0,0,1,3.5,1.448,4.772,4.772,0,0,1,1.448,3.5v30.154a4.772,4.772,0,0,1-1.448,3.5,4.772,4.772,0,0,1-3.5,1.448Zm0-4.951h30.154V-843.18H116.82Zm0-30.154v0ZM131.9-822.717l3.836,2.32a1.144,1.144,0,0,0,1.366-.04,1.118,1.118,0,0,0,.487-1.271l-1.01-4.382L140-829.066a1.167,1.167,0,0,0,.372-1.326,1.153,1.153,0,0,0-1.1-.839l-4.487-.354-1.765-4.15a1.125,1.125,0,0,0-1.123-.757,1.123,1.123,0,0,0-1.122.757l-1.765,4.15-4.487.354a1.153,1.153,0,0,0-1.1.839,1.167,1.167,0,0,0,.372,1.326l3.426,2.976-1.01,4.382a1.118,1.118,0,0,0,.487,1.271,1.144,1.144,0,0,0,1.366.04Z" transform="translate(-107.869 852.131)" fill="#1967d2"/>
  </g>
</svg>
