<svg xmlns="http://www.w3.org/2000/svg" xmlns:xlink="http://www.w3.org/1999/xlink" width="48" height="48" viewBox="0 0 48 48">
  <defs>
    <clipPath id="clip-Real_Time_status">
      <rect width="48" height="48"/>
    </clipPath>
  </defs>
  <g id="Real_Time_status" data-name="Real Time status" clip-path="url(#clip-Real_Time_status)">
    <path id="deployed_code_account_FILL0_wght500_GRAD0_opsz24" d="M103.3-783.981a3.876,3.876,0,0,1-.928-.113,2.545,2.545,0,0,1-.86-.395l-5.924-3.448a3.307,3.307,0,0,1-1.255-1.257,3.451,3.451,0,0,1-.443-1.722V-797.9a3.452,3.452,0,0,1,.443-1.722,3.307,3.307,0,0,1,1.255-1.257l5.937-3.448a2.787,2.787,0,0,1,.863-.381,3.752,3.752,0,0,1,.913-.114,2.986,2.986,0,0,1,.888.134,4.291,4.291,0,0,1,.837.362l5.937,3.448a3.456,3.456,0,0,1,1.283,1.256,3.322,3.322,0,0,1,.467,1.723v6.983a3.339,3.339,0,0,1-.463,1.722,3.428,3.428,0,0,1-1.287,1.257l-5.924,3.448a3.878,3.878,0,0,1-.84.374A3.032,3.032,0,0,1,103.3-783.981ZM88.6-802.951a8.26,8.26,0,0,1-6.061-2.513,8.26,8.26,0,0,1-2.513-6.061,8.24,8.24,0,0,1,2.513-6.055,8.271,8.271,0,0,1,6.061-2.507,8.271,8.271,0,0,1,6.061,2.507,8.241,8.241,0,0,1,2.513,6.055,8.26,8.26,0,0,1-2.513,6.061A8.26,8.26,0,0,1,88.6-802.951ZM71.869-790.444v-1.51a6.321,6.321,0,0,1,.983-3.43,6.243,6.243,0,0,1,2.513-2.329,32.127,32.127,0,0,1,5.956-2.262,27.015,27.015,0,0,1,7.282-.936h.818a2.754,2.754,0,0,1,.764.1,15.68,15.68,0,0,0-.8,2.156,17.762,17.762,0,0,0-.549,2.382h-.2a21.6,21.6,0,0,0-6.4.887,32.426,32.426,0,0,0-4.7,1.8,2.011,2.011,0,0,0-.739.693,1.826,1.826,0,0,0-.28,1v1.449H89.19a12.854,12.854,0,0,0,.956,2.433,17.484,17.484,0,0,0,1.323,2.207H76.51a4.473,4.473,0,0,1-3.284-1.357,4.473,4.473,0,0,1-1.357-3.284ZM88.6-807.592a3.789,3.789,0,0,0,2.778-1.155,3.787,3.787,0,0,0,1.156-2.778A3.769,3.769,0,0,0,91.38-814.3a3.8,3.8,0,0,0-2.778-1.15,3.794,3.794,0,0,0-2.778,1.152,3.769,3.769,0,0,0-1.156,2.769,3.787,3.787,0,0,0,1.155,2.778A3.787,3.787,0,0,0,88.6-807.592ZM88.6-811.525ZM89.19-790.444Zm9.446-8.417,4.66,2.719,4.659-2.719-4.659-2.668Zm6.311,10.558,4.443-2.554V-796.2l-4.443,2.617ZM97.2-790.856l4.443,2.605v-5.278L97.2-796.147Z" transform="translate(-67.869 826.087)" fill="#1967d2"/>
  </g>
</svg>
